<svg width="1104" height="90" viewBox="0 0 1104 90" fill="none" xmlns="http://www.w3.org/2000/svg">
<mask id="path-1-inside-1_3323_725" fill="white">
<path d="M0 0.899902H1104V89.6999H0V0.899902Z"/>
</mask>
<path d="M0 1.6999H1104V0.0999023H0V1.6999Z" fill="#EAEAEA" mask="url(#path-1-inside-1_3323_725)"/>
<path d="M3.5 46.1088C3.5 45.5652 3.63258 45.0697 3.89773 44.6223C4.16288 44.1748 4.51918 43.8186 4.96662 43.5534C5.41406 43.2882 5.90956 43.1557 6.45312 43.1557C6.92377 43.1557 7.35795 43.2568 7.75568 43.4589C8.15672 43.6611 8.48816 43.9379 8.75 44.2892C9.01184 44.6372 9.17424 45.0316 9.23722 45.4724H8.03409C7.9678 45.1311 7.78385 44.8526 7.48224 44.6372C7.18063 44.4185 6.83759 44.3091 6.45312 44.3091C6.12169 44.3091 5.82008 44.3903 5.5483 44.5527C5.27652 44.7151 5.05942 44.9322 4.89702 45.204C4.73461 45.4757 4.65341 45.7774 4.65341 46.1088C4.65341 46.4402 4.73461 46.7418 4.89702 47.0136C5.05942 47.2854 5.27652 47.5025 5.5483 47.6649C5.82008 47.8273 6.12169 47.9085 6.45312 47.9085C6.83759 47.9085 7.16241 47.8008 7.42756 47.5854C7.69602 47.3666 7.86506 47.0865 7.93466 46.7452H9.13778C9.07481 47.186 8.92069 47.582 8.67543 47.9334C8.43016 48.2814 8.11529 48.5565 7.73082 48.7587C7.34967 48.9608 6.92377 49.0619 6.45312 49.0619C5.90956 49.0619 5.41406 48.9293 4.96662 48.6642C4.51918 48.399 4.16288 48.0427 3.89773 47.5953C3.63258 47.1479 3.5 46.6524 3.5 46.1088ZM6.40341 51.3588C5.68087 51.3588 5.00142 51.2229 4.36506 50.9511C3.73201 50.6793 3.17353 50.3032 2.68963 49.8226C2.20904 49.3387 1.8312 48.7802 1.55611 48.1472C1.28433 47.5141 1.15009 46.8346 1.15341 46.1088C1.15672 45.3829 1.29427 44.7035 1.56605 44.0704C1.84115 43.4374 2.21899 42.8806 2.69957 42.4C3.18016 41.9161 3.73698 41.5382 4.37003 41.2665C5.00308 40.9947 5.68087 40.8588 6.40341 40.8588C7.12926 40.8588 7.80871 40.9947 8.44176 41.2665C9.07813 41.5382 9.63494 41.9161 10.1122 42.4C10.5928 42.8806 10.969 43.4374 11.2408 44.0704C11.5125 44.7035 11.6501 45.3829 11.6534 46.1088C11.6567 46.8346 11.5225 47.5141 11.2507 48.1472C10.9789 48.7802 10.6027 49.3387 10.1222 49.8226C9.64157 50.3032 9.0831 50.6793 8.44673 50.9511C7.81037 51.2229 7.12926 51.3588 6.40341 51.3588ZM6.40341 50.2054C6.97017 50.2054 7.50213 50.0993 7.99929 49.8872C8.49645 49.6751 8.93229 49.3818 9.30682 49.0072C9.68134 48.6327 9.97467 48.1985 10.1868 47.7047C10.3989 47.2075 10.5033 46.6772 10.5 46.1138C10.4967 45.547 10.389 45.015 10.1768 44.5179C9.96473 44.0207 9.6714 43.5849 9.29688 43.2104C8.92235 42.8358 8.48816 42.5425 7.99432 42.3304C7.50047 42.1183 6.97017 42.0122 6.40341 42.0122C5.83996 42.0122 5.31132 42.1183 4.81747 42.3304C4.32363 42.5425 3.88944 42.8375 3.51491 43.2153C3.14039 43.5899 2.84541 44.0257 2.62997 44.5229C2.41785 45.0167 2.31013 45.547 2.30682 46.1138C2.3035 46.6739 2.40791 47.2025 2.62003 47.6997C2.83215 48.1936 3.12547 48.6277 3.5 49.0023C3.87784 49.3768 4.31368 49.6718 4.80753 49.8872C5.30469 50.0993 5.83665 50.2054 6.40341 50.2054ZM17.661 51.1997V41.0179H18.894V46.069H19.0133L23.5871 41.0179H25.1979L20.9224 45.6116L25.1979 51.1997H23.7065L20.1667 46.4668L18.894 47.8986V51.1997H17.661ZM29.1159 51.3588C28.3801 51.3588 27.7454 51.1964 27.2118 50.8716C26.6815 50.5435 26.2721 50.0861 25.9838 49.4994C25.6987 48.9095 25.5562 48.2234 25.5562 47.4412C25.5562 46.659 25.6987 45.9696 25.9838 45.373C26.2721 44.7731 26.6732 44.3058 27.1869 43.971C27.7039 43.6329 28.3072 43.4639 28.9966 43.4639C29.3943 43.4639 29.787 43.5302 30.1748 43.6628C30.5626 43.7954 30.9156 44.0108 31.2338 44.3091C31.552 44.6041 31.8055 44.9952 31.9944 45.4824C32.1834 45.9696 32.2778 46.5695 32.2778 47.2821V47.7793H26.3914V46.765H31.0846C31.0846 46.3342 30.9985 45.9497 30.8261 45.6116C30.6571 45.2736 30.4151 45.0068 30.1003 44.8112C29.7887 44.6157 29.4208 44.5179 28.9966 44.5179C28.5292 44.5179 28.1249 44.6339 27.7835 44.8659C27.4454 45.0946 27.1852 45.3929 27.003 45.7608C26.8207 46.1287 26.7295 46.5231 26.7295 46.944V47.6202C26.7295 48.1969 26.8289 48.6857 27.0278 49.0868C27.23 49.4845 27.5101 49.7878 27.868 49.9966C28.226 50.2021 28.6419 50.3048 29.1159 50.3048C29.4241 50.3048 29.7025 50.2617 29.9511 50.1756C30.203 50.0861 30.4201 49.9535 30.6024 49.7778C30.7847 49.5989 30.9255 49.3768 31.025 49.1116L32.1585 49.4298C32.0392 49.8143 31.8387 50.1524 31.5569 50.444C31.2752 50.7324 30.9272 50.9578 30.5129 51.1202C30.0986 51.2793 29.6329 51.3588 29.1159 51.3588ZM35.0759 46.606V51.1997H33.9026V43.5633H35.0361V44.7565H35.1356C35.3145 44.3687 35.5863 44.0572 35.9509 43.8219C36.3155 43.5832 36.7861 43.4639 37.3628 43.4639C37.8799 43.4639 38.3323 43.57 38.7201 43.7821C39.1079 43.9909 39.4095 44.3091 39.6249 44.7366C39.8404 45.1609 39.9481 45.6978 39.9481 46.3474V51.1997H38.7748V46.427C38.7748 45.8271 38.619 45.3597 38.3074 45.025C37.9959 44.6869 37.5683 44.5179 37.0248 44.5179C36.6502 44.5179 36.3155 44.5991 36.0205 44.7615C35.7288 44.9239 35.4985 45.1609 35.3295 45.4724C35.1604 45.784 35.0759 46.1618 35.0759 46.606ZM45.1338 51.3588C44.398 51.3588 43.7633 51.1964 43.2297 50.8716C42.6993 50.5435 42.29 50.0861 42.0017 49.4994C41.7166 48.9095 41.5741 48.2234 41.5741 47.4412C41.5741 46.659 41.7166 45.9696 42.0017 45.373C42.29 44.7731 42.6911 44.3058 43.2048 43.971C43.7218 43.6329 44.3251 43.4639 45.0145 43.4639C45.4122 43.4639 45.8049 43.5302 46.1927 43.6628C46.5805 43.7954 46.9335 44.0108 47.2517 44.3091C47.5699 44.6041 47.8234 44.9952 48.0123 45.4824C48.2012 45.9696 48.2957 46.5695 48.2957 47.2821V47.7793H42.4093V46.765H47.1025C47.1025 46.3342 47.0163 45.9497 46.844 45.6116C46.675 45.2736 46.433 45.0068 46.1181 44.8112C45.8066 44.6157 45.4387 44.5179 45.0145 44.5179C44.5471 44.5179 44.1428 44.6339 43.8014 44.8659C43.4633 45.0946 43.2031 45.3929 43.0208 45.7608C42.8386 46.1287 42.7474 46.5231 42.7474 46.944V47.6202C42.7474 48.1969 42.8468 48.6857 43.0457 49.0868C43.2479 49.4845 43.5279 49.7878 43.8859 49.9966C44.2439 50.2021 44.6598 50.3048 45.1338 50.3048C45.442 50.3048 45.7204 50.2617 45.969 50.1756C46.2209 50.0861 46.438 49.9535 46.6203 49.7778C46.8026 49.5989 46.9434 49.3768 47.0429 49.1116L48.1764 49.4298C48.0571 49.8143 47.8565 50.1524 47.5748 50.444C47.2931 50.7324 46.9451 50.9578 46.5308 51.1202C46.1165 51.2793 45.6508 51.3588 45.1338 51.3588ZM49.9205 51.1997V43.5633H51.054V44.7565H51.1535C51.3126 44.3489 51.5694 44.0323 51.9241 43.807C52.2787 43.5783 52.7046 43.4639 53.2018 43.4639C53.7055 43.4639 54.1248 43.5783 54.4596 43.807C54.7976 44.0323 55.0611 44.3489 55.2501 44.7565H55.3296C55.5251 44.3621 55.8185 44.0489 56.2096 43.8169C56.6007 43.5816 57.0697 43.4639 57.6165 43.4639C58.2993 43.4639 58.8578 43.6777 59.292 44.1052C59.7261 44.5295 59.9432 45.1907 59.9432 46.0889V51.1997H58.7699V46.0889C58.7699 45.5255 58.6158 45.1228 58.3076 44.8808C57.9993 44.6389 57.6364 44.5179 57.2188 44.5179C56.6819 44.5179 56.2659 44.6803 55.9709 45.0051C55.676 45.3266 55.5285 45.7343 55.5285 46.2281V51.1997H54.3353V45.9696C54.3353 45.5354 54.1944 45.1857 53.9127 44.9206C53.631 44.6521 53.268 44.5179 52.8239 44.5179C52.519 44.5179 52.234 44.5991 51.9688 44.7615C51.707 44.9239 51.4948 45.1493 51.3324 45.4376C51.1733 45.7227 51.0938 46.0525 51.0938 46.427V51.1997H49.9205ZM64.1756 51.3787C63.6917 51.3787 63.2526 51.2875 62.8582 51.1052C62.4637 50.9196 62.1505 50.6528 61.9185 50.3048C61.6865 49.9535 61.5705 49.5293 61.5705 49.0321C61.5705 48.5946 61.6567 48.24 61.829 47.9682C62.0014 47.6931 62.2317 47.4776 62.5201 47.3219C62.8084 47.1661 63.1266 47.0501 63.4746 46.9739C63.826 46.8943 64.1789 46.8313 64.5336 46.7849C64.9976 46.7253 65.3738 46.6805 65.6621 46.6507C65.9538 46.6176 66.1659 46.5629 66.2985 46.4866C66.4344 46.4104 66.5023 46.2778 66.5023 46.0889V46.0491C66.5023 45.5586 66.3681 45.1775 66.0996 44.9057C65.8345 44.6339 65.4318 44.498 64.8915 44.498C64.3314 44.498 63.8923 44.6206 63.5741 44.8659C63.2559 45.1112 63.0322 45.373 62.9029 45.6514L61.7893 45.2537C61.9881 44.7897 62.2533 44.4284 62.5847 44.1699C62.9195 43.908 63.2841 43.7257 63.6785 43.623C64.0762 43.5169 64.4673 43.4639 64.8518 43.4639C65.097 43.4639 65.3788 43.4937 65.6969 43.5534C66.0184 43.6097 66.3283 43.7274 66.6266 43.9064C66.9282 44.0854 67.1785 44.3555 67.3773 44.7168C67.5762 45.078 67.6756 45.5619 67.6756 46.1685V51.1997H66.5023V50.1656H66.4427C66.3631 50.3313 66.2306 50.5087 66.045 50.6976C65.8593 50.8865 65.6124 51.0472 65.3042 51.1798C64.9959 51.3124 64.6198 51.3787 64.1756 51.3787ZM64.3546 50.3247C64.8186 50.3247 65.2097 50.2336 65.5279 50.0513C65.8494 49.869 66.0914 49.6337 66.2538 49.3453C66.4195 49.057 66.5023 48.7537 66.5023 48.4355V47.3616C66.4526 47.4213 66.3432 47.476 66.1742 47.5257C66.0085 47.5721 65.8163 47.6135 65.5975 47.65C65.3821 47.6831 65.1716 47.713 64.9661 47.7395C64.7639 47.7627 64.5999 47.7826 64.4739 47.7991C64.169 47.8389 63.884 47.9035 63.6188 47.993C63.357 48.0792 63.1449 48.2101 62.9825 48.3858C62.8234 48.5581 62.7438 48.7935 62.7438 49.0918C62.7438 49.4994 62.8946 49.8077 63.1962 50.0165C63.5012 50.222 63.8873 50.3247 64.3546 50.3247ZM70.5123 51.2793C70.267 51.2793 70.0565 51.1914 69.8809 51.0158C69.7052 50.8401 69.6174 50.6296 69.6174 50.3844C69.6174 50.1391 69.7052 49.9286 69.8809 49.753C70.0565 49.5773 70.267 49.4895 70.5123 49.4895C70.7575 49.4895 70.968 49.5773 71.1437 49.753C71.3193 49.9286 71.4071 50.1391 71.4071 50.3844C71.4071 50.5468 71.3657 50.6959 71.2829 50.8318C71.2033 50.9677 71.0956 51.0771 70.9597 51.1599C70.8271 51.2395 70.678 51.2793 70.5123 51.2793ZM76.4549 51.3588C75.739 51.3588 75.1225 51.1898 74.6055 50.8517C74.0884 50.5136 73.6907 50.048 73.4123 49.4547C73.1339 48.8614 72.9947 48.1836 72.9947 47.4213C72.9947 46.6457 73.1372 45.9613 73.4222 45.368C73.7106 44.7714 74.1116 44.3058 74.6253 43.971C75.1424 43.6329 75.7456 43.4639 76.435 43.4639C76.9719 43.4639 77.4558 43.5633 77.8867 43.7622C78.3176 43.9611 78.6706 44.2395 78.9457 44.5974C79.2207 44.9554 79.3914 45.373 79.4577 45.8503H78.2844C78.1949 45.5023 77.9961 45.194 77.6878 44.9256C77.3829 44.6538 76.9719 44.5179 76.4549 44.5179C75.9975 44.5179 75.5965 44.6372 75.2518 44.8758C74.9104 45.1112 74.6436 45.4443 74.4513 45.8751C74.2624 46.3027 74.168 46.8048 74.168 47.3815C74.168 47.9715 74.2608 48.4852 74.4464 48.9227C74.6353 49.3602 74.9004 49.6999 75.2418 49.9419C75.5865 50.1838 75.9909 50.3048 76.4549 50.3048C76.7598 50.3048 77.0366 50.2518 77.2851 50.1457C77.5337 50.0397 77.7442 49.8872 77.9165 49.6883C78.0889 49.4895 78.2115 49.2508 78.2844 48.9724H79.4577C79.3914 49.4232 79.2274 49.8292 78.9655 50.1905C78.707 50.5484 78.364 50.8335 77.9364 51.0456C77.5122 51.2544 77.0183 51.3588 76.4549 51.3588ZM84.1152 51.3588C83.4258 51.3588 82.8209 51.1947 82.3006 50.8666C81.7835 50.5385 81.3792 50.0794 81.0875 49.4895C80.7991 48.8995 80.655 48.2101 80.655 47.4213C80.655 46.6258 80.7991 45.9315 81.0875 45.3382C81.3792 44.7449 81.7835 44.2842 82.3006 43.9561C82.8209 43.628 83.4258 43.4639 84.1152 43.4639C84.8046 43.4639 85.4078 43.628 85.9249 43.9561C86.4452 44.2842 86.8496 44.7449 87.1379 45.3382C87.4296 45.9315 87.5754 46.6258 87.5754 47.4213C87.5754 48.2101 87.4296 48.8995 87.1379 49.4895C86.8496 50.0794 86.4452 50.5385 85.9249 50.8666C85.4078 51.1947 84.8046 51.3588 84.1152 51.3588ZM84.1152 50.3048C84.6389 50.3048 85.0697 50.1706 85.4078 49.9021C85.7459 49.6337 85.9961 49.2807 86.1585 48.8432C86.3209 48.4057 86.4021 47.9317 86.4021 47.4213C86.4021 46.9109 86.3209 46.4353 86.1585 45.9945C85.9961 45.5536 85.7459 45.1973 85.4078 44.9256C85.0697 44.6538 84.6389 44.5179 84.1152 44.5179C83.5915 44.5179 83.1607 44.6538 82.8226 44.9256C82.4845 45.1973 82.2343 45.5536 82.0719 45.9945C81.9095 46.4353 81.8283 46.9109 81.8283 47.4213C81.8283 47.9317 81.9095 48.4057 82.0719 48.8432C82.2343 49.2807 82.4845 49.6337 82.8226 49.9021C83.1607 50.1706 83.5915 50.3048 84.1152 50.3048ZM89.2064 51.1997V43.5633H90.34V44.7565H90.4394C90.5985 44.3489 90.8554 44.0323 91.21 43.807C91.5646 43.5783 91.9905 43.4639 92.4877 43.4639C92.9915 43.4639 93.4107 43.5783 93.7455 43.807C94.0836 44.0323 94.3471 44.3489 94.536 44.7565H94.6155C94.8111 44.3621 95.1044 44.0489 95.4955 43.8169C95.8866 43.5816 96.3556 43.4639 96.9025 43.4639C97.5852 43.4639 98.1437 43.6777 98.5779 44.1052C99.0121 44.5295 99.2292 45.1907 99.2292 46.0889V51.1997H98.0559V46.0889C98.0559 45.5255 97.9018 45.1228 97.5935 44.8808C97.2853 44.6389 96.9223 44.5179 96.5047 44.5179C95.9678 44.5179 95.5518 44.6803 95.2569 45.0051C94.9619 45.3266 94.8144 45.7343 94.8144 46.2281V51.1997H93.6212V45.9696C93.6212 45.5354 93.4804 45.1857 93.1986 44.9206C92.9169 44.6521 92.554 44.5179 92.1098 44.5179C91.8049 44.5179 91.5199 44.5991 91.2547 44.7615C90.9929 44.9239 90.7808 45.1493 90.6184 45.4376C90.4593 45.7227 90.3797 46.0525 90.3797 46.427V51.1997H89.2064ZM102.07 51.2793C101.824 51.2793 101.614 51.1914 101.438 51.0158C101.262 50.8401 101.175 50.6296 101.175 50.3844C101.175 50.1391 101.262 49.9286 101.438 49.753C101.614 49.5773 101.824 49.4895 102.07 49.4895C102.315 49.4895 102.525 49.5773 102.701 49.753C102.877 49.9286 102.964 50.1391 102.964 50.3844C102.964 50.5468 102.923 50.6959 102.84 50.8318C102.761 50.9677 102.653 51.0771 102.517 51.1599C102.384 51.2395 102.235 51.2793 102.07 51.2793ZM109.264 51.1997H107.971L111.71 41.0179H112.983L116.721 51.1997H115.429L112.386 42.6287H112.307L109.264 51.1997ZM109.741 47.2224H114.952V48.3162H109.741V47.2224ZM119.162 41.0179V51.1997H117.988V41.0179H119.162ZM122.324 41.0179V51.1997H121.151V41.0179H122.324ZM128.09 51.1997V43.5633H129.224V44.7168H129.303C129.443 44.3389 129.695 44.0323 130.059 43.797C130.424 43.5617 130.835 43.444 131.292 43.444C131.378 43.444 131.486 43.4457 131.615 43.449C131.744 43.4523 131.842 43.4573 131.909 43.4639V44.6571C131.869 44.6471 131.778 44.6322 131.635 44.6123C131.496 44.5891 131.348 44.5775 131.193 44.5775C130.821 44.5775 130.49 44.6554 130.198 44.8112C129.91 44.9637 129.681 45.1758 129.512 45.4476C129.347 45.716 129.264 46.0226 129.264 46.3673V51.1997H128.09ZM133.139 51.1997V43.5633H134.313V51.1997H133.139ZM133.736 42.2906C133.507 42.2906 133.31 42.2127 133.144 42.057C132.982 41.9012 132.901 41.7139 132.901 41.4952C132.901 41.2764 132.982 41.0891 133.144 40.9334C133.31 40.7776 133.507 40.6997 133.736 40.6997C133.965 40.6997 134.16 40.7776 134.323 40.9334C134.488 41.0891 134.571 41.2764 134.571 41.4952C134.571 41.7139 134.488 41.9012 134.323 42.057C134.16 42.2127 133.965 42.2906 133.736 42.2906ZM139.384 54.2224C138.817 54.2224 138.33 54.1495 137.922 54.0037C137.515 53.8612 137.175 53.6722 136.903 53.4369C136.635 53.2049 136.421 52.9563 136.262 52.6912L137.196 52.0349C137.303 52.1741 137.437 52.3332 137.599 52.5122C137.762 52.6945 137.984 52.8519 138.265 52.9845C138.55 53.1204 138.923 53.1883 139.384 53.1883C140 53.1883 140.509 53.0392 140.91 52.7409C141.311 52.4426 141.512 51.9753 141.512 51.3389V49.7878H141.412C141.326 49.927 141.204 50.0993 141.044 50.3048C140.889 50.507 140.663 50.6876 140.368 50.8467C140.077 51.0025 139.682 51.0804 139.185 51.0804C138.569 51.0804 138.015 50.9346 137.525 50.6429C137.037 50.3512 136.651 49.927 136.366 49.3702C136.085 48.8133 135.944 48.1372 135.944 47.3418C135.944 46.5596 136.081 45.8784 136.356 45.2984C136.631 44.7151 137.014 44.2643 137.505 43.9462C137.995 43.6247 138.562 43.4639 139.205 43.4639C139.702 43.4639 140.097 43.5468 140.388 43.7125C140.683 43.8749 140.909 44.0605 141.064 44.2693C141.223 44.4748 141.346 44.6438 141.432 44.7764H141.552V43.5633H142.685V51.4185C142.685 52.0747 142.536 52.6083 142.238 53.0193C141.943 53.4336 141.545 53.7369 141.044 53.9291C140.547 54.1247 139.994 54.2224 139.384 54.2224ZM139.344 50.0264C139.815 50.0264 140.213 49.9187 140.537 49.7033C140.862 49.4878 141.109 49.1779 141.278 48.7736C141.447 48.3692 141.532 47.8853 141.532 47.3219C141.532 46.7717 141.449 46.2861 141.283 45.8652C141.117 45.4443 140.872 45.1145 140.547 44.8758C140.223 44.6372 139.821 44.5179 139.344 44.5179C138.847 44.5179 138.433 44.6438 138.101 44.8957C137.773 45.1476 137.526 45.4857 137.361 45.9099C137.198 46.3342 137.117 46.8048 137.117 47.3219C137.117 47.8522 137.2 48.3212 137.366 48.7288C137.535 49.1332 137.783 49.4514 138.111 49.6834C138.443 49.9121 138.854 50.0264 139.344 50.0264ZM145.846 46.606V51.1997H144.673V41.0179H145.846V44.7565H145.946C146.125 44.3621 146.393 44.0489 146.751 43.8169C147.112 43.5816 147.593 43.4639 148.193 43.4639C148.713 43.4639 149.169 43.5683 149.56 43.7771C149.951 43.9826 150.254 44.2991 150.47 44.7267C150.688 45.1509 150.798 45.6912 150.798 46.3474V51.1997H149.625V46.427C149.625 45.8204 149.467 45.3515 149.152 45.02C148.841 44.6853 148.408 44.5179 147.855 44.5179C147.47 44.5179 147.125 44.5991 146.821 44.7615C146.519 44.9239 146.28 45.1609 146.105 45.4724C145.932 45.784 145.846 46.1618 145.846 46.606ZM156.105 43.5633V44.5577H152.148V43.5633H156.105ZM153.301 41.7338H154.475V49.0122C154.475 49.3436 154.523 49.5922 154.619 49.7579C154.718 49.9204 154.844 50.0297 154.997 50.0861C155.152 50.1391 155.317 50.1656 155.489 50.1656C155.618 50.1656 155.724 50.159 155.807 50.1457C155.89 50.1292 155.956 50.1159 156.006 50.106L156.245 51.1599C156.165 51.1898 156.054 51.2196 155.911 51.2494C155.769 51.2826 155.588 51.2991 155.37 51.2991C155.038 51.2991 154.713 51.2279 154.395 51.0854C154.08 50.9428 153.818 50.7257 153.61 50.4341C153.404 50.1424 153.301 49.7745 153.301 49.3304V41.7338ZM162.983 45.2736L161.929 45.5719C161.862 45.3962 161.765 45.2255 161.635 45.0598C161.509 44.8908 161.337 44.7516 161.118 44.6422C160.9 44.5328 160.619 44.4781 160.278 44.4781C159.811 44.4781 159.421 44.5858 159.11 44.8013C158.802 45.0134 158.647 45.2835 158.647 45.6116C158.647 45.9033 158.753 46.1337 158.966 46.3027C159.178 46.4717 159.509 46.6126 159.96 46.7253L161.093 47.0037C161.776 47.1694 162.285 47.423 162.62 47.7643C162.954 48.1024 163.122 48.5382 163.122 49.0719C163.122 49.5094 162.996 49.9005 162.744 50.2452C162.495 50.5899 162.147 50.8616 161.7 51.0605C161.253 51.2594 160.732 51.3588 160.139 51.3588C159.36 51.3588 158.715 51.1898 158.205 50.8517C157.695 50.5136 157.371 50.0198 157.235 49.3702L158.349 49.0918C158.455 49.5027 158.656 49.811 158.951 50.0165C159.249 50.222 159.638 50.3247 160.119 50.3247C160.666 50.3247 161.1 50.2087 161.422 49.9767C161.746 49.7414 161.909 49.4597 161.909 49.1315C161.909 48.8664 161.816 48.6443 161.63 48.4653C161.445 48.283 161.16 48.1472 160.775 48.0577L159.503 47.7594C158.803 47.5936 158.289 47.3368 157.961 46.9888C157.637 46.6374 157.474 46.1983 157.474 45.6713C157.474 45.2404 157.595 44.8593 157.837 44.5278C158.082 44.1964 158.415 43.9362 158.836 43.7473C159.261 43.5584 159.741 43.4639 160.278 43.4639C161.034 43.4639 161.627 43.6296 162.058 43.9611C162.492 44.2925 162.8 44.73 162.983 45.2736ZM168.506 51.1997V43.5633H169.639V44.7168H169.719C169.858 44.3389 170.11 44.0323 170.474 43.797C170.839 43.5617 171.25 43.444 171.707 43.444C171.793 43.444 171.901 43.4457 172.03 43.449C172.16 43.4523 172.257 43.4573 172.324 43.4639V44.6571C172.284 44.6471 172.193 44.6322 172.05 44.6123C171.911 44.5891 171.764 44.5775 171.608 44.5775C171.237 44.5775 170.905 44.6554 170.613 44.8112C170.325 44.9637 170.096 45.1758 169.927 45.4476C169.762 45.716 169.679 46.0226 169.679 46.3673V51.1997H168.506ZM176.524 51.3588C175.788 51.3588 175.153 51.1964 174.62 50.8716C174.089 50.5435 173.68 50.0861 173.392 49.4994C173.107 48.9095 172.964 48.2234 172.964 47.4412C172.964 46.659 173.107 45.9696 173.392 45.373C173.68 44.7731 174.081 44.3058 174.595 43.971C175.112 43.6329 175.715 43.4639 176.404 43.4639C176.802 43.4639 177.195 43.5302 177.583 43.6628C177.971 43.7954 178.323 44.0108 178.642 44.3091C178.96 44.6041 179.213 44.9952 179.402 45.4824C179.591 45.9696 179.686 46.5695 179.686 47.2821V47.7793H173.799V46.765H178.493C178.493 46.3342 178.406 45.9497 178.234 45.6116C178.065 45.2736 177.823 45.0068 177.508 44.8112C177.197 44.6157 176.829 44.5179 176.404 44.5179C175.937 44.5179 175.533 44.6339 175.191 44.8659C174.853 45.0946 174.593 45.3929 174.411 45.7608C174.229 46.1287 174.137 46.5231 174.137 46.944V47.6202C174.137 48.1969 174.237 48.6857 174.436 49.0868C174.638 49.4845 174.918 49.7878 175.276 49.9966C175.634 50.2021 176.05 50.3048 176.524 50.3048C176.832 50.3048 177.11 50.2617 177.359 50.1756C177.611 50.0861 177.828 49.9535 178.01 49.7778C178.193 49.5989 178.333 49.3768 178.433 49.1116L179.566 49.4298C179.447 49.8143 179.247 50.1524 178.965 50.444C178.683 50.7324 178.335 50.9578 177.921 51.1202C177.506 51.2793 177.041 51.3588 176.524 51.3588ZM186.72 45.2736L185.666 45.5719C185.599 45.3962 185.502 45.2255 185.372 45.0598C185.246 44.8908 185.074 44.7516 184.855 44.6422C184.636 44.5328 184.356 44.4781 184.015 44.4781C183.548 44.4781 183.158 44.5858 182.847 44.8013C182.538 45.0134 182.384 45.2835 182.384 45.6116C182.384 45.9033 182.49 46.1337 182.703 46.3027C182.915 46.4717 183.246 46.6126 183.697 46.7253L184.83 47.0037C185.513 47.1694 186.022 47.423 186.357 47.7643C186.691 48.1024 186.859 48.5382 186.859 49.0719C186.859 49.5094 186.733 49.9005 186.481 50.2452C186.232 50.5899 185.884 50.8616 185.437 51.0605C184.989 51.2594 184.469 51.3588 183.876 51.3588C183.097 51.3588 182.452 51.1898 181.942 50.8517C181.431 50.5136 181.108 50.0198 180.972 49.3702L182.086 49.0918C182.192 49.5027 182.393 49.811 182.688 50.0165C182.986 50.222 183.375 50.3247 183.856 50.3247C184.403 50.3247 184.837 50.2087 185.159 49.9767C185.483 49.7414 185.646 49.4597 185.646 49.1315C185.646 48.8664 185.553 48.6443 185.367 48.4653C185.182 48.283 184.897 48.1472 184.512 48.0577L183.239 47.7594C182.54 47.5936 182.026 47.3368 181.698 46.9888C181.373 46.6374 181.211 46.1983 181.211 45.6713C181.211 45.2404 181.332 44.8593 181.574 44.5278C181.819 44.1964 182.152 43.9362 182.573 43.7473C182.998 43.5584 183.478 43.4639 184.015 43.4639C184.771 43.4639 185.364 43.6296 185.795 43.9611C186.229 44.2925 186.537 44.73 186.72 45.2736ZM191.667 51.3588C190.931 51.3588 190.296 51.1964 189.763 50.8716C189.232 50.5435 188.823 50.0861 188.535 49.4994C188.25 48.9095 188.107 48.2234 188.107 47.4412C188.107 46.659 188.25 45.9696 188.535 45.373C188.823 44.7731 189.224 44.3058 189.738 43.971C190.255 43.6329 190.858 43.4639 191.547 43.4639C191.945 43.4639 192.338 43.5302 192.726 43.6628C193.113 43.7954 193.466 44.0108 193.785 44.3091C194.103 44.6041 194.356 44.9952 194.545 45.4824C194.734 45.9696 194.829 46.5695 194.829 47.2821V47.7793H188.942V46.765H193.635C193.635 46.3342 193.549 45.9497 193.377 45.6116C193.208 45.2736 192.966 45.0068 192.651 44.8112C192.339 44.6157 191.972 44.5179 191.547 44.5179C191.08 44.5179 190.676 44.6339 190.334 44.8659C189.996 45.0946 189.736 45.3929 189.554 45.7608C189.371 46.1287 189.28 46.5231 189.28 46.944V47.6202C189.28 48.1969 189.38 48.6857 189.579 49.0868C189.781 49.4845 190.061 49.7878 190.419 49.9966C190.777 50.2021 191.193 50.3048 191.667 50.3048C191.975 50.3048 192.253 50.2617 192.502 50.1756C192.754 50.0861 192.971 49.9535 193.153 49.7778C193.335 49.5989 193.476 49.3768 193.576 49.1116L194.709 49.4298C194.59 49.8143 194.389 50.1524 194.108 50.444C193.826 50.7324 193.478 50.9578 193.064 51.1202C192.649 51.2793 192.184 51.3588 191.667 51.3588ZM196.453 51.1997V43.5633H197.587V44.7168H197.666C197.806 44.3389 198.058 44.0323 198.422 43.797C198.787 43.5617 199.198 43.444 199.655 43.444C199.741 43.444 199.849 43.4457 199.978 43.449C200.108 43.4523 200.205 43.4573 200.272 43.4639V44.6571C200.232 44.6471 200.141 44.6322 199.998 44.6123C199.859 44.5891 199.711 44.5775 199.556 44.5775C199.184 44.5775 198.853 44.6554 198.561 44.8112C198.273 44.9637 198.044 45.1758 197.875 45.4476C197.71 45.716 197.627 46.0226 197.627 46.3673V51.1997H196.453ZM207.979 43.5633L205.155 51.1997H203.962L201.138 43.5633H202.411L204.519 49.6486H204.598L206.706 43.5633H207.979ZM212.296 51.3588C211.56 51.3588 210.926 51.1964 210.392 50.8716C209.862 50.5435 209.452 50.0861 209.164 49.4994C208.879 48.9095 208.736 48.2234 208.736 47.4412C208.736 46.659 208.879 45.9696 209.164 45.373C209.452 44.7731 209.853 44.3058 210.367 43.971C210.884 43.6329 211.487 43.4639 212.177 43.4639C212.574 43.4639 212.967 43.5302 213.355 43.6628C213.743 43.7954 214.096 44.0108 214.414 44.3091C214.732 44.6041 214.986 44.9952 215.175 45.4824C215.364 45.9696 215.458 46.5695 215.458 47.2821V47.7793H209.572V46.765H214.265C214.265 46.3342 214.179 45.9497 214.006 45.6116C213.837 45.2736 213.595 45.0068 213.28 44.8112C212.969 44.6157 212.601 44.5179 212.177 44.5179C211.709 44.5179 211.305 44.6339 210.964 44.8659C210.626 45.0946 210.365 45.3929 210.183 45.7608C210.001 46.1287 209.91 46.5231 209.91 46.944V47.6202C209.91 48.1969 210.009 48.6857 210.208 49.0868C210.41 49.4845 210.69 49.7878 211.048 49.9966C211.406 50.2021 211.822 50.3048 212.296 50.3048C212.604 50.3048 212.883 50.2617 213.131 50.1756C213.383 50.0861 213.6 49.9535 213.783 49.7778C213.965 49.5989 214.106 49.3768 214.205 49.1116L215.339 49.4298C215.219 49.8143 215.019 50.1524 214.737 50.444C214.455 50.7324 214.107 50.9578 213.693 51.1202C213.279 51.2793 212.813 51.3588 212.296 51.3588ZM219.966 51.3588C219.33 51.3588 218.768 51.198 218.281 50.8766C217.794 50.5517 217.413 50.0944 217.137 49.5044C216.862 48.9111 216.725 48.2101 216.725 47.4014C216.725 46.5993 216.862 45.9033 217.137 45.3133C217.413 44.7234 217.795 44.2677 218.286 43.9462C218.776 43.6247 219.343 43.4639 219.986 43.4639C220.483 43.4639 220.876 43.5468 221.164 43.7125C221.456 43.8749 221.678 44.0605 221.831 44.2693C221.986 44.4748 222.107 44.6438 222.194 44.7764H222.293V41.0179H223.466V51.1997H222.333V50.0264H222.194C222.107 50.1656 221.985 50.3413 221.826 50.5534C221.667 50.7622 221.44 50.9495 221.145 51.1152C220.85 51.2776 220.457 51.3588 219.966 51.3588ZM220.125 50.3048C220.596 50.3048 220.994 50.1822 221.319 49.9369C221.643 49.6883 221.89 49.3453 222.059 48.9078C222.228 48.467 222.313 47.9582 222.313 47.3815C222.313 46.8114 222.23 46.3126 222.064 45.8851C221.899 45.4542 221.653 45.1195 221.329 44.8808C221.004 44.6389 220.603 44.5179 220.125 44.5179C219.628 44.5179 219.214 44.6455 218.882 44.9007C218.554 45.1526 218.307 45.4956 218.142 45.9298C217.979 46.3607 217.898 46.8446 217.898 47.3815C217.898 47.9251 217.981 48.4189 218.147 48.8631C218.316 49.3039 218.564 49.6552 218.892 49.917C219.224 50.1756 219.635 50.3048 220.125 50.3048ZM226.473 51.2793C226.228 51.2793 226.017 51.1914 225.842 51.0158C225.666 50.8401 225.578 50.6296 225.578 50.3844C225.578 50.1391 225.666 49.9286 225.842 49.753C226.017 49.5773 226.228 49.4895 226.473 49.4895C226.718 49.4895 226.929 49.5773 227.105 49.753C227.28 49.9286 227.368 50.1391 227.368 50.3844C227.368 50.5468 227.327 50.6959 227.244 50.8318C227.164 50.9677 227.057 51.0771 226.921 51.1599C226.788 51.2395 226.639 51.2793 226.473 51.2793Z" fill="#F7F7FA"/>
<g clip-path="url(#clip0_3323_725)">
<path opacity="0.1" fill-rule="evenodd" clip-rule="evenodd" d="M1000 45.6997C1000 39.0723 1005.37 33.6997 1012 33.6997C1018.63 33.6997 1024 39.0723 1024 45.6997C1024 52.3271 1018.63 57.6997 1012 57.6997C1005.37 57.6997 1000 52.3271 1000 45.6997Z" fill="#F9F8F9"/>
<path fill-rule="evenodd" clip-rule="evenodd" d="M1012 39.2998C1010.26 39.2998 1010.04 39.3074 1009.36 39.3385C1008.68 39.3697 1008.22 39.4775 1007.81 39.6358C1007.39 39.7993 1007.03 40.0179 1006.67 40.3738C1006.32 40.7296 1006.1 41.0866 1005.94 41.5074C1005.78 41.9145 1005.67 42.3797 1005.64 43.0608C1005.61 43.7435 1005.6 43.9617 1005.6 45.6999C1005.6 47.438 1005.61 47.6555 1005.64 48.3382C1005.67 49.0195 1005.78 49.4846 1005.94 49.8915C1006.1 50.3125 1006.32 50.6695 1006.67 51.0253C1007.03 51.3813 1007.39 51.6005 1007.81 51.7639C1008.21 51.9222 1008.68 52.0301 1009.36 52.0613C1010.04 52.0923 1010.26 52.0999 1012 52.0999C1013.74 52.0999 1013.96 52.0923 1014.64 52.0613C1015.32 52.0301 1015.79 51.9222 1016.19 51.7639C1016.61 51.6005 1016.97 51.3813 1017.33 51.0253C1017.68 50.6695 1017.9 50.3125 1018.06 49.8916C1018.22 49.4846 1018.33 49.0194 1018.36 48.3383C1018.39 47.6556 1018.4 47.438 1018.4 45.6999C1018.4 43.9617 1018.39 43.7436 1018.36 43.0609C1018.33 42.3796 1018.22 41.9145 1018.06 41.5076C1017.9 41.0866 1017.68 40.7296 1017.33 40.3738C1016.97 40.0178 1016.61 39.7991 1016.19 39.6358C1015.78 39.4775 1015.32 39.3697 1014.64 39.3385C1013.95 39.3074 1013.74 39.2998 1012 39.2998H1012ZM1011.43 40.4531C1011.6 40.4529 1011.79 40.4531 1012 40.4531C1013.71 40.4531 1013.91 40.4593 1014.59 40.4899C1015.21 40.5185 1015.55 40.6227 1015.78 40.7103C1016.07 40.8263 1016.29 40.965 1016.51 41.189C1016.73 41.413 1016.87 41.6263 1016.99 41.925C1017.08 42.1503 1017.18 42.489 1017.21 43.113C1017.24 43.7877 1017.25 43.9904 1017.25 45.6984C1017.25 47.4064 1017.24 47.6091 1017.21 48.2837C1017.18 48.9078 1017.08 49.2464 1016.99 49.4718C1016.87 49.7704 1016.73 49.9831 1016.51 50.207C1016.29 50.431 1016.07 50.5696 1015.78 50.6856C1015.55 50.7736 1015.21 50.8776 1014.59 50.9062C1013.91 50.9368 1013.71 50.9435 1012 50.9435C1010.29 50.9435 1010.09 50.9368 1009.41 50.9062C1008.79 50.8774 1008.45 50.7731 1008.23 50.6855C1007.93 50.5695 1007.71 50.4308 1007.49 50.2068C1007.27 49.9828 1007.13 49.77 1007.01 49.4712C1006.92 49.2459 1006.82 48.9072 1006.79 48.2832C1006.76 47.6085 1006.75 47.4059 1006.75 45.6968C1006.75 43.9877 1006.76 43.7861 1006.79 43.1114C1006.82 42.4874 1006.92 42.1487 1007.01 41.9231C1007.13 41.6245 1007.27 41.4111 1007.49 41.1871C1007.71 40.9631 1007.93 40.8245 1008.23 40.7082C1008.45 40.6202 1008.79 40.5162 1009.41 40.4875C1010 40.4609 1010.23 40.4529 1011.43 40.4515V40.4531ZM1015.42 41.5158C1014.99 41.5158 1014.65 41.8594 1014.65 42.2836C1014.65 42.7076 1014.99 43.0516 1015.42 43.0516C1015.84 43.0516 1016.18 42.7076 1016.18 42.2836C1016.18 41.8595 1015.84 41.5158 1015.42 41.5158ZM1012 42.4132C1010.19 42.4132 1008.71 43.8848 1008.71 45.6999C1008.71 47.5149 1010.19 48.9859 1012 48.9859C1013.82 48.9859 1015.29 47.5149 1015.29 45.6999C1015.29 43.8848 1013.82 42.4132 1012 42.4132ZM1012 43.5665C1013.18 43.5665 1014.13 44.5216 1014.13 45.6999C1014.13 46.878 1013.18 47.8332 1012 47.8332C1010.82 47.8332 1009.87 46.878 1009.87 45.6999C1009.87 44.5216 1010.82 43.5665 1012 43.5665Z" fill="white"/>
<path opacity="0.1" fill-rule="evenodd" clip-rule="evenodd" d="M1040 45.6997C1040 39.0723 1045.37 33.6997 1052 33.6997C1058.63 33.6997 1064 39.0723 1064 45.6997C1064 52.3271 1058.63 57.6997 1052 57.6997C1045.37 57.6997 1040 52.3271 1040 45.6997Z" fill="#F9F8F9"/>
<path fill-rule="evenodd" clip-rule="evenodd" d="M1051.64 43.4537L1051.67 43.8689L1051.25 43.818C1049.72 43.6231 1048.38 42.9622 1047.25 41.8521L1046.7 41.3013L1046.55 41.708C1046.25 42.6147 1046.44 43.5723 1047.07 44.2163C1047.41 44.5722 1047.33 44.6231 1046.76 44.4112C1046.55 44.3434 1046.38 44.2926 1046.36 44.318C1046.3 44.3773 1046.5 45.1485 1046.66 45.4535C1046.88 45.8772 1047.33 46.2924 1047.81 46.5382L1048.22 46.7331L1047.74 46.7416C1047.27 46.7416 1047.25 46.75 1047.3 46.928C1047.47 47.4788 1048.13 48.0635 1048.87 48.3177L1049.39 48.4957L1048.94 48.7669C1048.27 49.1567 1047.48 49.377 1046.69 49.3939C1046.31 49.4024 1046 49.4363 1046 49.4617C1046 49.5465 1047.02 50.021 1047.62 50.2074C1049.41 50.7583 1051.53 50.521 1053.13 49.5804C1054.26 48.9109 1055.39 47.5805 1055.92 46.2924C1056.21 45.6061 1056.49 44.3519 1056.49 43.7502C1056.49 43.3604 1056.52 43.3096 1056.99 42.8435C1057.26 42.5724 1057.52 42.2758 1057.57 42.191C1057.66 42.03 1057.65 42.03 1057.22 42.1741C1056.51 42.4283 1056.41 42.3944 1056.76 42.0131C1057.02 41.7419 1057.33 41.2504 1057.33 41.1063C1057.33 41.0809 1057.21 41.1233 1057.06 41.1996C1056.91 41.2843 1056.58 41.4114 1056.32 41.4877L1055.87 41.6317L1055.46 41.3521C1055.23 41.1996 1054.91 41.0301 1054.75 40.9792C1054.32 40.8606 1053.66 40.8775 1053.28 41.0131C1052.23 41.3945 1051.57 42.3775 1051.64 43.4537Z" fill="white"/>
<path opacity="0.1" fill-rule="evenodd" clip-rule="evenodd" d="M1080 45.6997C1080 39.0723 1085.37 33.6997 1092 33.6997C1098.63 33.6997 1104 39.0723 1104 45.6997C1104 52.3271 1098.63 57.6997 1092 57.6997C1085.37 57.6997 1080 52.3271 1080 45.6997Z" fill="#F9F8F9"/>
<path fill-rule="evenodd" clip-rule="evenodd" d="M1097 41.5745C1097.55 41.7256 1097.99 42.1709 1098.13 42.7364C1098.4 43.7613 1098.4 45.8998 1098.4 45.8998C1098.4 45.8998 1098.4 48.0382 1098.13 49.0632C1097.99 49.6287 1097.55 50.074 1097 50.2252C1096 50.4998 1092 50.4998 1092 50.4998C1092 50.4998 1088 50.4998 1087 50.2252C1086.45 50.074 1086.01 49.6287 1085.87 49.0632C1085.6 48.0382 1085.6 45.8998 1085.6 45.8998C1085.6 45.8998 1085.6 43.7613 1085.87 42.7364C1086.01 42.1709 1086.45 41.7256 1087 41.5745C1088 41.2998 1092 41.2998 1092 41.2998C1092 41.2998 1096 41.2998 1097 41.5745ZM1090.8 44.0998V48.0998L1094 46.0998L1090.8 44.0998Z" fill="white"/>
</g>
<defs>
<clipPath id="clip0_3323_725">
<rect width="104" height="24" fill="white" transform="translate(1000 33.6997)"/>
</clipPath>
</defs>
</svg>
