<svg width="1536" height="306" viewBox="0 0 1536 306" fill="none" xmlns="http://www.w3.org/2000/svg">
<g clip-path="url(#clip0_3543_72)">
<rect width="1539" height="356" fill="#F18A2D"/>
<g opacity="0.12">
<path fill-rule="evenodd" clip-rule="evenodd" d="M499.026 24.7101C498.911 4.9032 452.965 -17.3703 433.339 -28.8536C394.533 -51.566 354.172 -72.5397 314.185 -93.8485C274.199 -115.157 234.104 -136.408 195.975 -159.802C171.217 -174.988 142.127 -192.092 125.336 -213.776C89.5669 -259.987 202.344 -253.124 231.556 -254.135C305.873 -256.717 391.114 -255.539 460.774 -279.603C502.358 -293.969 518.94 -318.062 510.008 -353.176C507.13 -364.596 498.608 -377.737 505.827 -388.862C513.535 -400.744 531.268 -407.6 545.986 -412.198C599.669 -428.949 661.39 -430.89 718.189 -432.993C779.435 -435.303 841.257 -434.627 902.072 -434.806C927.859 -434.882 954.79 -442.316 979.346 -448.358C1011.54 -456.277 1043.35 -465.173 1075.28 -473.773C1145.51 -492.65 1217.88 -512.532 1292.19 -517.327C1338.73 -520.33 1389.59 -516.27 1425.74 -490.143C1443.89 -477.025 1453.39 -457.525 1463.88 -440.202C1476.59 -419.274 1488.79 -398.144 1502.31 -377.546C1545.87 -311.205 1608.07 -246.378 1709.02 -243.12C1724.29 -242.629 1739.29 -244.229 1754.49 -244.529C1764.17 -244.714 1772.79 -242.837 1776.39 -234.709C1785.43 -214.325 1757 -182.145 1745.34 -165.971C1719.81 -130.568 1691.02 -96.754 1664.05 -62.0615C1646.21 -39.118 1615.33 -7.76425 1615.01 20.1122C1614.72 44.9503 1655.89 62.9031 1678.3 75.1373C1699.3 86.5917 1737.35 102.621 1739.65 125.923C1740.77 137.221 1731.48 146.584 1721.79 153.851C1704.8 166.559 1685.22 175.524 1669.93 190.022C1644.87 213.809 1623.92 246.538 1627.33 278.59C1629.69 300.8 1645.48 315.345 1665.57 329.248C1674.01 335.094 1680.86 339.23 1681.31 348.72C1682.03 363.791 1674.67 379.739 1668.61 393.712C1646.93 443.717 1616.14 492.071 1581.89 537.219C1564.78 559.781 1546.29 582.274 1523.6 601.52C1508.74 614.159 1488.69 629.2 1466.02 629.183C1439.77 629.183 1412 621.581 1386.49 615.898C1338.84 605.275 1291.76 592.995 1244.87 580.396C1136.44 551.249 1029.02 519.741 922.627 485.873C847.684 461.976 771.151 438.045 700.693 406.275C686.952 400.037 673.982 392.762 661.959 384.551C649.112 375.927 633.171 372.068 617.006 369.192C516.68 351.337 406.767 365.044 306.024 373.639C280.453 375.817 254.882 378.006 229.239 379.531C207.195 380.842 180.803 384.603 159.378 378.954C117.16 367.834 154.066 326.851 169.669 310.152C224.604 251.355 295.48 201.609 361.174 150.824C392.409 126.639 423.882 102.517 453.418 76.9626C468.798 63.6771 499.126 42.0737 499.026 24.7101Z" stroke="white"/>
<path fill-rule="evenodd" clip-rule="evenodd" d="M517.957 21.371C501.119 0.412288 471.576 -15.0787 447.054 -29.6574C411.764 -50.645 375.366 -70.4663 339.515 -90.8592C305.615 -110.144 271.644 -129.647 240.25 -151.547C221.108 -164.902 197.089 -180.872 188.022 -200.624C168.353 -243.436 274.164 -236.941 300.286 -238.061C365.226 -240.832 438.851 -241.468 498.929 -264.008C536.444 -278.085 551.856 -301.428 543.855 -333.836C541.089 -345.049 536.106 -354.622 542.415 -365.776C549.71 -378.687 566.491 -386.735 581.874 -392.417C630.062 -410.217 687.022 -413.999 739.258 -417.145C793.222 -420.396 849.447 -422.688 901.676 -420.31C922.561 -419.363 946.601 -424.738 967.271 -428.86C999.075 -435.212 1030.55 -442.539 1062.2 -449.352C1126.51 -463.209 1192.5 -476.557 1259.4 -478.076C1307.71 -479.173 1358.07 -473.226 1398.26 -450.241C1438.98 -426.932 1457.05 -390.8 1479.64 -356.452C1518.64 -297.069 1571.33 -224.868 1661.57 -212.322C1675.25 -210.416 1688.4 -211.45 1702.07 -210.982C1709.1 -210.745 1717.1 -209.995 1720.66 -204.435C1729.92 -190 1704.56 -163.608 1696.03 -152.552C1672.45 -121.997 1645.94 -92.9378 1621.23 -62.972C1601.6 -39.1783 1576.73 -12.7403 1569.14 15.4645C1559.92 49.6913 1620.11 74.045 1641.28 98.1446C1677.97 139.935 1608.45 163.746 1574.18 183.671C1534.82 206.547 1502.33 248.279 1537.61 283.673C1551.11 297.206 1567.72 305.272 1573.75 322.934C1583.17 350.556 1576.04 382.121 1568.39 409.425C1556.87 450.471 1538.64 491.072 1513.85 528.168C1496.09 554.727 1466.62 596.373 1423.48 593.25C1394.43 591.165 1364.9 583.55 1336.62 576.818C1294.27 566.742 1252.46 555.258 1210.87 543.33C1114.86 515.87 1019.91 485.592 926.825 452.289C863.311 429.558 686.144 336.664 672.813 333.35C633.065 323.477 587.873 325.215 546.894 326.745C492.383 328.777 438.145 334.043 383.95 338.922C358.153 341.231 332.226 344.055 306.292 345.192C287.834 346 263.592 346.693 247.423 338.084C215.865 321.289 251.024 282.858 265.565 266.6C310.109 216.755 366.457 173.59 419.29 129.456C445.217 107.787 471.54 86.1525 495.076 62.7457C504.568 53.2941 528.364 34.3158 517.957 21.371Z" stroke="white"/>
<path fill-rule="evenodd" clip-rule="evenodd" d="M541.252 10.6224C495.267 -31.3183 431.798 -62.5111 377.021 -97.5387C349.529 -115.125 321.863 -133.19 298.15 -154.137C285.815 -165.03 270.412 -178.804 268.036 -193.987C261.685 -234.606 357.053 -229.113 385.598 -230.655C440.785 -233.647 503.13 -235.917 553.198 -256.644C583.787 -269.316 598.851 -290.113 593.134 -317.447C590.599 -329.576 586.653 -339.879 593.134 -351.788C599.701 -363.853 613.383 -372.365 627.237 -378.747C667.051 -397.101 716.528 -402.969 761.354 -407.341C813.938 -412.433 866.918 -414.422 919.866 -413.29C966.24 -412.314 1012.39 -423.293 1057.67 -430.529C1117.65 -440.111 1178.72 -448.479 1240.1 -447.214C1288.58 -446.209 1337.44 -438.314 1378.88 -417.333C1420.99 -395.964 1446.31 -363.98 1469.13 -329.466C1503.64 -277.291 1546.64 -207.375 1622.35 -187.559C1633.36 -184.672 1643.62 -184.354 1654.97 -183.852C1660.49 -183.609 1667.61 -183.534 1670.35 -178.919C1676.93 -167.808 1652.6 -146.266 1645.81 -138.758C1624.13 -114.79 1600.64 -91.9019 1578.42 -68.2518C1557.68 -46.1726 1535.09 -23.1635 1522.21 2.71017C1501.71 43.9174 1567.25 68.0123 1565.42 107.279C1564.27 131.657 1535.17 149.139 1512.13 161.233C1483.76 176.104 1442.91 185.882 1428.71 213.02C1418.13 233.234 1434.73 244.999 1447.51 260.338C1469.17 286.327 1470.65 321.557 1468.39 351.641C1465.35 392.294 1453.48 433.547 1433.27 470.914C1424.11 487.853 1412.89 505.473 1396.37 518.63C1380.9 530.96 1366.25 534.119 1345.57 531.595C1282.26 523.856 1218.34 502.285 1157.62 483.019C1081.35 458.808 1006.12 432.08 933.138 402.008C883.372 381.499 832.484 359.801 788.803 331.467C777.419 324.081 765.76 316.053 757.436 306.31C751.143 298.987 748.471 292.94 737.864 288.758C706.425 276.37 662.694 279.61 629.009 280.898C575.146 282.948 521.543 288.406 468.012 293.321C436.774 296.209 377.929 305.293 352.985 283.503C331.454 264.687 357.435 232.605 370.706 216.029C404.277 174.112 447.46 137.322 487.526 99.4418C505.888 82.0811 524.97 64.5875 540.135 45.2862C544.01 40.3656 550.217 33.8452 551.282 27.8677C552.478 21.0181 546.897 15.7914 541.252 10.6224Z" stroke="white"/>
<path fill-rule="evenodd" clip-rule="evenodd" d="M545.205 20.3858C502.713 -16.6975 451.522 -47.1629 405.905 -81.8649C385.451 -97.4242 364.796 -113.746 349.211 -132.727C340.828 -142.935 331.926 -155.783 334.238 -168.47C340.871 -204.883 419.308 -201.594 450.996 -203.727C498.083 -206.859 552.176 -210.015 593.811 -229.649C621.085 -242.509 631.311 -261.502 626.22 -285.997C620.753 -312.272 632.975 -331.345 660.789 -346.003C695.661 -364.365 739.679 -371.85 780.169 -377.167C828.95 -383.543 878.35 -386.37 927.765 -385.612C975.824 -384.872 1022.38 -391.334 1070.13 -395.536C1133.42 -401.102 1198.75 -403.847 1261.34 -392.438C1315.83 -382.502 1365.05 -360.608 1401.94 -326.75C1440.48 -291.412 1459.56 -246.89 1490.85 -207.796C1510.37 -183.411 1537.58 -151.153 1574.05 -141.675C1586.22 -138.513 1608.39 -142.778 1598.67 -127.225C1593.12 -118.33 1582.72 -110.527 1574.51 -103.256C1561.25 -91.5057 1547.54 -80.079 1534.05 -68.4904C1505.3 -43.7875 1474.52 -18.5586 1452.97 10.6931C1425.82 47.5221 1466.18 75.8663 1461.26 113.21C1458.61 133.306 1441.2 149.345 1422.78 161.945C1410.86 170.106 1397.81 177.175 1384.5 183.77C1370.59 190.659 1354.14 195.907 1342.01 204.814C1324.72 217.489 1332.23 232.494 1335.47 248.879C1341.17 277.676 1342.42 306.927 1339.2 335.97C1335.25 371.568 1326 408.183 1306.5 440.532C1298.92 453.127 1289.31 466.478 1275.04 474.922C1260.78 483.367 1246.02 482.789 1229.67 480.245C1181.18 472.732 1132.79 455.248 1086.79 438.677C1029.22 417.933 972.777 394.75 918.878 368.377C881.673 350.171 844.345 330.502 813.218 305.816C804.165 298.632 795.552 290.939 788.588 282.35C783.805 276.461 781.242 268.86 774.313 264.433C752.635 250.613 709.114 254.74 683.691 255.544C632.953 257.145 583.015 264.757 532.342 266.606C504.687 267.618 461.374 270.161 441.065 251.266C421.965 233.505 439.264 205.531 450.679 188.417C473.113 154.767 503.253 124.787 530.268 93.5063C541.373 80.6347 553.545 67.1677 560.739 52.4696C567.135 39.3725 556.094 29.8936 545.205 20.3858Z" stroke="white"/>
<path fill-rule="evenodd" clip-rule="evenodd" d="M555.656 20.9926C521.834 -11.6396 481.061 -40.607 446.994 -73.7702C427.054 -93.1914 392.714 -125.841 408.135 -153.221C425.053 -183.308 484.026 -184.128 518.114 -186.552C558.686 -189.437 606.331 -193.379 641.053 -212.166C652.034 -218.105 661.389 -225.966 665.354 -236.32C669.6 -247.401 664.958 -257.097 664.354 -268.19C663.087 -291.461 680.401 -310.143 703.314 -322.973C735.696 -341.113 776.189 -349.69 814.437 -355.669C857.769 -362.413 901.82 -365.738 945.961 -365.596C988.144 -365.481 1029.88 -366.231 1072.11 -367.097C1127.33 -368.251 1183.33 -366.387 1236.9 -354.619C1289.67 -343.018 1337.65 -321.277 1375.33 -289.297C1412.1 -258.09 1436.9 -219.946 1458.63 -181.092C1470.96 -159.039 1491.78 -126.083 1521.18 -114.944C1534.26 -109.987 1547.09 -110.327 1533.19 -97.4335C1515.68 -81.1982 1492.08 -68.1718 1471.8 -54.2855C1442.55 -34.2467 1412.57 -13.8155 1388.01 10.0094C1372.33 25.2231 1365.34 39.9867 1366.42 59.685C1367.26 74.6909 1371.04 89.5411 1369.13 104.605C1364.65 139.961 1329.94 164.207 1299.26 186.786C1279.52 201.307 1261.49 212.382 1251.33 233.039C1239.31 257.452 1234.27 284.013 1226.24 309.361C1217.41 337.198 1207.22 366.153 1187.97 390.671C1170.83 412.499 1149.98 422.287 1118.78 416.406C1070.11 407.241 1022.14 384.663 978.933 363.776C934.958 342.525 891.738 318.631 855.296 289.421C835.622 273.647 822.194 255.126 804.722 238.181C782.745 216.907 733.027 224.964 703.479 226.765C654.43 229.755 500.095 252.125 514.336 179.669C520.28 149.427 543.689 121.515 560.808 94.8278C567.904 83.7523 578.173 70.4604 579.777 57.7688C581.526 43.946 565.824 30.8157 555.656 20.9926Z" stroke="white"/>
<path fill-rule="evenodd" clip-rule="evenodd" d="M573.513 23.7633C547.667 -5.80812 516.736 -33.7453 494.558 -65.6843C480.171 -86.3687 466.043 -114.006 484.603 -135.891C505.55 -160.589 551.739 -166.346 585.677 -169.493C620.645 -172.733 662.388 -175.458 690.968 -194.185C700.06 -200.15 707.556 -208.194 708.951 -217.826C710.296 -227.065 706.498 -236.305 707.757 -245.711C710.577 -266.835 726.539 -284.239 747.119 -296.862C807.997 -334.206 898.606 -342.51 972.058 -343.486C1008.82 -343.971 1046.66 -341.424 1083.66 -339.6C1131.68 -337.232 1179.77 -332.151 1225.56 -319.903C1322.92 -293.871 1388.18 -236.137 1433.76 -164.296C1448.1 -141.683 1459.08 -117.216 1481.56 -99.0439C1493.15 -89.6603 1490.62 -82.9214 1478.77 -74.3635C1460.25 -60.9896 1437.65 -50.7687 1417.09 -39.6065C1387.85 -23.7323 1357.99 -7.62131 1332.12 11.3943C1314.3 24.5025 1301.65 37.1314 1297.8 56.7879C1295.06 70.8027 1295.7 85.0832 1294.06 99.1846C1290.92 125.973 1280.18 152.559 1261.17 174.779C1246.06 192.391 1228.08 208.399 1209.49 223.661C1185.33 243.531 1164.89 263.719 1146.54 287.302C1122.21 318.519 1088.03 376.103 1030.73 360.864C967.526 344.048 908.288 301.322 867.739 259.925C854.122 246.025 842.943 228.979 824.578 218.729C797.085 203.409 769.189 203.946 736.488 204.01C687.529 204.096 580.994 212.625 579.844 153.771C579.39 130.454 591.964 108.407 597.985 85.9782C604.776 60.859 591.166 43.9165 573.513 23.7633Z" stroke="white"/>
<path fill-rule="evenodd" clip-rule="evenodd" d="M592.764 26.4C567.199 -12.1412 509.871 -75.4725 553.473 -118.33C576.505 -140.979 617.242 -149.491 651.415 -154.563C678.917 -158.666 712.082 -160.207 732.861 -177.599C748.134 -190.386 741.354 -208.996 747.206 -225.004C754.468 -244.848 771.137 -261.086 791.621 -273.291C848.862 -307.401 928.451 -317.868 997.308 -320.096C1068.82 -322.404 1147.62 -311.607 1214.91 -290.839C1298.82 -264.935 1361.68 -215.886 1405.65 -153.772C1413.76 -142.306 1421.13 -130.54 1428.91 -118.936C1434.15 -111.152 1441.91 -103.621 1446.03 -95.4327C1452.9 -81.7797 1444.81 -70.6195 1431.84 -61.7214C1413.18 -48.9109 1390.26 -39.7935 1369 -30.1798C1339.91 -17.0231 1310.18 -4.10291 1283.12 11.3332C1264.94 21.7201 1245.91 32.9091 1239.41 50.9304C1234.97 63.2216 1234.05 76.2398 1234.2 88.9696C1234.55 116.264 1232.76 138.336 1216.89 163.334C1190.76 204.374 1150.58 241.276 1108.14 271.981C1074.83 296.079 1022.12 333.512 973.593 317.401C930.049 302.974 904.577 268.444 875.888 240.526C861.94 226.954 846.271 214.559 827.86 204.905C804.648 192.735 782.797 187.628 755.296 185.637C709.009 182.284 639.216 181.413 624.908 136.865C619.625 120.425 622.64 103.396 619.869 86.7422C616.249 64.7219 605.662 45.8408 592.764 26.4Z" stroke="white"/>
<path fill-rule="evenodd" clip-rule="evenodd" d="M619.347 27.8273C601.142 -14.3442 577.227 -67.4919 621.196 -104.973C642.493 -123.129 672.451 -133.279 701.445 -140.865C722.21 -146.301 755.182 -147.901 767.913 -164.613C777.263 -176.913 778.558 -193.879 787.017 -207.057C798.64 -225.173 816.248 -240.095 836.905 -251.776C890.721 -282.214 960.814 -293.976 1024.74 -297.344C1163.63 -304.652 1304.95 -246.449 1379.27 -150.691C1401.43 -122.147 1430.04 -91.7665 1394.23 -62.6046C1355.13 -30.7911 1296.22 -15.8867 1249.56 6.71844C1231.73 15.3492 1209.01 25.7245 1199.06 41.3511C1193.07 50.7444 1192.66 62.5293 1192.39 72.87C1191.67 99.2069 1188.95 122.892 1175.75 147.467C1155.36 185.445 1122.86 220.482 1086.02 249.182C1053.9 274.207 1008.09 303.618 961.44 285.576C925.67 271.712 902.985 242.284 875.192 220.592C844.263 196.433 806.013 180.153 764.007 172.198C723.145 164.48 678.327 159.275 656.792 126.486C649.406 115.238 641.688 100.674 638.919 88.225C634.448 67.6989 627.903 47.4995 619.347 27.8273Z" stroke="white"/>
<path fill-rule="evenodd" clip-rule="evenodd" d="M648.988 28.1243C640.566 -14.46 639.63 -58.8635 678.76 -92.4261C697.022 -108.084 720.107 -119.208 743.452 -129.287C760.627 -136.703 778.364 -142.958 791.191 -155.116C803.075 -166.372 812.109 -179.443 823.583 -190.994C838.719 -206.302 856.829 -219.554 877.218 -230.24C928.326 -256.976 990.498 -269.48 1049.98 -273.818C1078.77 -275.926 1110 -277.023 1138.6 -271.277C1166.22 -265.732 1193.53 -256.964 1218.93 -246.741C1272.92 -225.03 1319.71 -193.235 1353.62 -153.036C1376.88 -125.463 1389.46 -98.6523 1359.34 -70.6806C1325.39 -39.1511 1272.15 -21.7547 1228.27 -1.29135C1198.17 12.7436 1164.44 26.5013 1158.82 56.3271C1154.34 80.0594 1150.7 102.585 1139.12 125.017C1121.88 158.106 1096.54 188.08 1064.59 213.16C1035.37 236.009 998.409 255.398 956.615 243.194C923.503 233.508 897.812 211.809 868.882 196.295C836.641 178.968 801.218 169.415 763.916 161.734C730.394 154.803 698.829 144.152 677.162 121.54C672.728 116.92 668.071 111.889 664.652 106.72C660.289 100.124 660.628 93.5861 659.771 86.1932C657.54 66.6829 652.796 47.3978 648.988 28.1243Z" stroke="white"/>
<path fill-rule="evenodd" clip-rule="evenodd" d="M681.67 24.6436C682.39 -15.8051 694.513 -54.0324 727.718 -85.5549C741.914 -99.0397 758.865 -110.147 774.485 -122.504C787.062 -132.465 798.948 -141.721 813.41 -149.93C847.716 -169.368 875.596 -194.521 912.053 -211.83C960.72 -234.97 1016.47 -247.76 1071.78 -252.874C1098.79 -255.374 1126.69 -256.247 1154.02 -253.424C1177.49 -251 1199.97 -242.49 1220.82 -233.784C1261.69 -216.73 1301.37 -192.491 1327.9 -161.824C1386.4 -94.215 1271.06 -45.0599 1211.86 -16.2737C1184.63 -3.03188 1143.03 12.3042 1131.88 38.5334C1123.91 57.271 1119.05 76.3268 1108.78 94.4859C1081.21 143.253 1025.22 200.612 950.618 192.975C918.694 189.713 889.598 176.459 859.796 167.562C829.109 158.399 797.437 153.29 765.542 147.685C735.733 142.449 711.975 134.998 692.722 115.023C683.519 105.483 684.332 94.0636 683.512 82.3605C682.174 63.137 681.346 43.8035 681.67 24.6436Z" stroke="white"/>
<path fill-rule="evenodd" clip-rule="evenodd" d="M711.43 19.4628C723.416 -41.5909 767.93 -108.244 833.383 -143.701C910.376 -185.41 993.786 -220.532 1085.77 -230.629C1128.42 -235.31 1175.14 -237.614 1215.38 -222.304C1246.01 -210.66 1281.59 -193.255 1298.44 -168.778C1339.68 -108.908 1247.96 -61.2474 1195.7 -33.5493C1167.56 -18.638 1131.75 -4.10777 1110.55 17.6674C1098.24 30.2926 1091.96 46.9935 1082.03 60.8599C1051.93 102.88 1002.38 136.773 940.657 142.834C912.119 145.634 883.372 142.171 855.05 139.417C826.058 136.6 796.706 135.07 767.894 131.139C744.895 127.998 717.79 122.681 709.319 102.932C698.638 78.0457 706.539 44.3957 711.43 19.4628Z" stroke="white"/>
<path fill-rule="evenodd" clip-rule="evenodd" d="M740.613 9.65483C758.093 -47.7459 795.109 -103.737 857.335 -138.004C890.334 -156.175 928.641 -168.718 965.419 -181.111C1007.11 -195.156 1050.66 -206.059 1095.15 -211.467C1150.54 -218.203 1240.25 -224.276 1269.19 -173.635C1297.91 -123.369 1225.33 -78.8816 1182.41 -53.5293C1154.89 -37.2884 1125.44 -22.3821 1099.15 -4.62748C1084.89 4.99805 1073.91 16.12 1061.84 27.4095C1028.5 58.6896 980.959 83.4526 932.506 96.6718C885.546 109.487 827.451 115.16 777.881 110.925C756.492 109.105 741.204 102.964 734.735 85.5036C725.772 61.2318 733.387 33.3662 740.613 9.65483Z" stroke="white"/>
<path fill-rule="evenodd" clip-rule="evenodd" d="M769.61 -5.80511C786.976 -56.3443 824.431 -102.505 879.065 -132.838C940.307 -166.841 1019.17 -185.736 1091.65 -195.344C1130.17 -200.448 1213.66 -214.285 1233.3 -174.683C1252.94 -135.082 1196.17 -96.0554 1163.5 -74.5716C1123.84 -48.5368 1081.08 -23.3995 1038.38 -0.0400255C1001.28 20.27 961.685 41.0346 921.497 56.7188C898.831 65.6163 875.22 72.8811 850.943 78.4269C832.967 82.5005 810.108 88.5762 791.261 85.5441C743.724 77.8861 761.305 18.3598 769.61 -5.80511Z" stroke="white"/>
<path fill-rule="evenodd" clip-rule="evenodd" d="M805.404 -20.9391C843.506 -116.515 964.222 -163.521 1080.45 -179.905C1107.46 -183.708 1183.18 -197.42 1198.27 -168.224C1212.9 -139.917 1166.38 -106.346 1144.59 -90.4408C1077.1 -41.1553 993.704 -4.61255 914.683 31.5897C890.018 42.8896 845.533 67.4111 814.937 56.0997C781.717 43.7957 797.511 -1.12104 805.404 -20.9391Z" stroke="white"/>
<path fill-rule="evenodd" clip-rule="evenodd" d="M844.432 -39.335C877.567 -109.719 973.943 -150.087 1062.55 -163.395C1084.25 -166.652 1139.37 -176.79 1155.81 -157.148C1171.02 -138.979 1134.72 -112.652 1121.14 -102.191C1090.9 -78.8948 1055.07 -59.7038 1019.67 -41.2576C986.94 -24.1912 953.855 -6.69761 919.415 7.73606C901.275 15.334 867.253 31.5459 846.639 19.8142C824.446 7.19339 837.075 -23.7062 844.432 -39.335Z" stroke="white"/>
<path fill-rule="evenodd" clip-rule="evenodd" d="M-220.956 78.8746C-221.868 33.7829 -251.73 -13.0802 -236.982 -59.0259C-224.873 -96.761 -163.907 -99.9114 -127.334 -117.008C-98.2703 -130.59 -81.7767 -154.65 -66.0592 -177.736C-51.9372 -198.461 -39.2525 -219.81 -24.3759 -240.195C-14.7456 -253.373 1.79116 -279.251 22.6759 -279.719C42.6695 -280.169 61.003 -260.003 72.6168 -248.082C87.7594 -232.544 101.184 -215.979 115.888 -200.192C140.668 -173.564 170.4 -153.854 204.444 -135.2C243.185 -113.974 282.566 -93.4741 322.587 -73.6987C352.053 -59.0951 381.72 -44.6012 410.043 -28.5551C427.809 -18.4866 467.02 0.404026 467.2 18.9658C467.286 27.8226 456.829 37.6314 449.779 44.711C437.849 56.6951 424.251 67.6521 410.611 78.3726C385.206 98.3422 358.722 117.406 332.527 136.7C298.526 161.742 266.049 186.374 236.159 214.802C205.256 244.228 175.733 274.624 145.606 304.604C125.202 324.914 104.821 347.723 75.3909 360.186C38.5299 375.765 8.27362 359.338 -29.0042 359.147C-61.0716 358.98 -58.7071 299.342 -62.782 282.76C-66.8713 265.975 -75.8835 250.35 -79.3763 233.525C-83.7315 212.523 -83.789 191.036 -84.8598 169.808C-86.1606 143.844 -86.6781 119.125 -121.254 109.224C-140.931 103.599 -162.218 102.416 -182.586 99.0461C-195.78 96.8594 -220.668 93.1205 -220.956 78.8746Z" stroke="white"/>
<path fill-rule="evenodd" clip-rule="evenodd" d="M-205.191 70.8531C-208.552 33.0551 -228.411 -15.3235 -209.632 -54.3408C-193.588 -87.6835 -143.413 -92.0059 -109.627 -109.521C-81.7365 -123.967 -69.3205 -147.608 -55.3786 -170.832C-44.1935 -189.462 -33.3466 -208.272 -20.6499 -226.307C-11.2929 -239.598 2.99444 -262.036 22.4497 -264.787C39.9401 -267.26 58.6972 -247.451 68.5148 -237.373C82.8381 -222.661 95.0885 -206.683 107.742 -191.04C129.976 -163.563 152.742 -138.853 185.283 -118.668C217.967 -98.397 253.725 -83.2397 289.865 -67.464C318.137 -55.1209 346.265 -42.4195 373.127 -28.1694C393.137 -17.5598 421.906 -3.98006 431.061 14.9392C438.309 29.9058 401.551 54.7423 390.711 63.5085C368.398 81.532 344.754 98.4518 321.066 115.268C292.189 135.759 262.391 153.678 236.89 177.053C191.278 218.844 153.152 270.886 94.4624 301.946C59.0642 320.68 19.6714 325.471 -19.6998 322.668C-35.29 321.559 -39.0327 303.894 -40.9977 293.59C-44.2654 276.474 -44.6757 259.063 -47.1877 241.877C-49.5413 225.79 -54.7668 210.505 -58.9775 194.73C-63.2385 178.746 -64.4333 162.369 -67.5715 146.276C-69.5149 136.285 -71.4366 124.658 -79.9371 116.626C-88.7326 108.31 -103.243 104.826 -115.925 102.179C-139.742 97.2556 -202.816 97.5273 -205.191 70.8531Z" stroke="white"/>
<path fill-rule="evenodd" clip-rule="evenodd" d="M-184.901 55.0303C-190.554 20.3346 -198.468 -22.8793 -175.438 -54.8453C-156.614 -80.9825 -116.467 -86.6208 -87.7917 -103.651C-63.9411 -117.814 -54.9323 -140.338 -43.0935 -161.27C-33.379 -178.439 -23.6141 -195.683 -11.84 -212.021C-2.91047 -224.411 8.59715 -241.211 26.3266 -245.533C41.4853 -249.227 58.6098 -232.681 67.0137 -224.446C81.3226 -210.41 92.9886 -194.684 104.575 -179.166C123.529 -153.773 140.971 -126.649 167.947 -105.994C194.159 -85.9514 225.297 -74.1207 257.019 -60.8184C281.316 -50.6266 305.462 -40.0425 328.354 -27.8886C345.933 -18.5625 367.717 -7.5109 376.877 8.00753C384.798 21.3907 364.462 37.2322 354.301 46.6737C337.522 62.2556 318.899 76.5506 300.536 90.9033C280.718 106.387 258.769 120.67 239.592 136.535C199.265 169.921 167.046 206.885 117.343 232.462C85.1537 249.031 41.8381 264.082 3.7867 261.375C-23.5781 259.425 -21.7777 210.82 -24.4062 195.291C-28.727 169.898 -37.0732 143.218 -50.3307 119.828C-61.7159 99.785 -88.771 93.6041 -113.659 89.1084C-129.249 86.2864 -145.589 84.7629 -160.668 80.3999C-178.124 75.3445 -182.531 69.5734 -184.901 55.0303Z" stroke="white"/>
<path fill-rule="evenodd" clip-rule="evenodd" d="M-165.974 38.7671C-169.34 9.43365 -168.583 -25.2537 -146.781 -50.6282C-127.674 -72.854 -93.6556 -78.7057 -69.4604 -96.2144C-50.5771 -109.874 -43.1608 -132.146 -33.0056 -150.21C-20.5945 -172.297 -3.20311 -213.091 28.1057 -221.403C57.2307 -229.13 87.689 -179.77 98.2334 -165.051C114.926 -141.754 128.886 -116.206 149.132 -94.6921C166.566 -76.1706 189.925 -65.9316 214.719 -54.9287C246.33 -40.8755 294.324 -24.2119 311.225 3.17686C323.824 23.5853 282.857 53.9259 268.868 68.0659C254.237 82.8369 243.217 100.346 228.117 114.596C204.29 137.082 165.68 155.187 133.802 169.003C102.81 182.442 62.5641 197.317 27.4066 196.432C4.29975 195.853 -0.0967367 167.214 -5.02658 153.224C-12.0898 133.337 -21.481 115.516 -41.6544 101.989C-62.1882 88.2197 -86.3905 81.7313 -111.833 76.0533C-124.892 73.1593 -139.79 70.902 -151.473 65.0562C-164.381 58.6952 -164.677 50.0421 -165.974 38.7671Z" stroke="white"/>
<path fill-rule="evenodd" clip-rule="evenodd" d="M-142.914 21.8595C-142.727 -3.48243 -135.507 -30.5062 -114.099 -50.054C-96.2683 -66.3363 -68.3585 -71.779 -51.2893 -88.4241C-37.769 -101.602 -30.8867 -120.102 -21.8349 -135.405C-10.7643 -154.158 4.88958 -186.918 32.4187 -193.426C59.2868 -199.762 83.0515 -163.678 93.3533 -149.4C108.44 -128.464 120.653 -106.273 135.875 -85.3946C147.801 -69.0145 162.384 -58.4572 181.803 -47.9C204.598 -35.4997 236.401 -21.7632 248.578 -1.24773C257.357 13.6061 236.107 37.3412 228.391 50.4268C223.218 59.2159 218.484 68.1432 215.884 77.6695C213.858 85.0877 213.657 91.9531 207.787 98.3231C193.01 114.346 160.61 116.437 138.627 121.718C109.431 128.728 78.4537 136.693 47.9002 138.214C29.1212 139.164 19.5378 125.278 8.81925 115.51C-3.84614 103.962 -21.7774 95.6565 -37.4385 86.9423C-58.1069 75.4232 -80.6 68.2584 -103.869 60.9207C-114.365 57.609 -126.693 54.3606 -134.825 47.7774C-143.316 40.9524 -142.979 31.0057 -142.914 21.8595Z" stroke="white"/>
<path fill-rule="evenodd" clip-rule="evenodd" d="M-118.694 6.81503C-114.983 -14.4688 -103.42 -34.8111 -83.888 -49.8571C-68.9156 -61.4087 -49.0316 -67.9123 -37.0149 -81.7915C-25.818 -94.7293 -18.0154 -109.44 -8.76739 -123.273C1.02001 -137.898 15.5609 -162.341 38.1344 -166.32C62.4627 -170.606 81.2033 -145.949 91.5804 -132.284C104.69 -115.014 114.65 -96.4332 126.372 -78.5686C135.203 -65.2534 146.467 -53.0757 159.79 -42.441C173.763 -31.2302 192.712 -20.4929 199.781 -5.07734C206.03 8.57665 194.337 25.0954 192.273 38.94C190.066 53.7318 193.935 69.2687 181.695 81.9697C156.453 108.163 93.1049 103.306 56.8894 103.866C21.1557 104.443 -7.57363 88.4155 -36.4899 73.1674C-55.5901 63.1002 -75.4813 54.5751 -95.0633 45.1952C-115.026 35.6247 -121.959 25.5459 -118.694 6.81503Z" stroke="white"/>
<path fill-rule="evenodd" clip-rule="evenodd" d="M-96.1912 -5.36696C-85.2177 -36.2011 -50.9447 -52.5893 -26.4434 -75.8912C-6.39627 -94.9674 8.6355 -134.473 42.3976 -139.698C80.729 -145.629 103.676 -93.2852 117.002 -73.0876C131.79 -50.6875 158.126 -32.4668 169.078 -8.75443C174.834 3.69137 169.891 15.3047 166.825 27.7447C163.465 41.4045 160.939 55.3706 149.34 66.3654C126.508 88.0025 81.9163 87.8522 49.802 88.4476C16.558 89.0661 -12.8508 74.2387 -39.3381 59.4402C-67.43 43.7688 -107.431 26.2533 -96.1912 -5.36696Z" stroke="white"/>
<path fill-rule="evenodd" clip-rule="evenodd" d="M-77.8118 -13.7281C-65.4468 -35.6964 -39.4629 -53.5561 -18.3787 -70.416C-0.78067 -84.4716 18.151 -112.767 44.9828 -114.784C76.5186 -117.163 95.6315 -86.9483 108.04 -68.422C120.253 -50.2175 137.851 -30.9959 144.613 -11.0158C151.665 9.79755 132.886 37.8284 114.976 52.5563C95.0009 68.9794 62.3199 75.0476 34.2776 74.3925C4.91623 73.7259 -22.0244 60.153 -44.2611 46.0744C-68.0343 31.0246 -92.1917 11.7743 -77.8118 -13.7281Z" stroke="white"/>
<path fill-rule="evenodd" clip-rule="evenodd" d="M-60.7577 -17.864C-48.9465 -36.1358 -28.4729 -51.5926 -9.59538 -65.3799C4.97266 -76.0241 26.4692 -94.1232 47.487 -94.5664C70.6086 -95.0558 90.2044 -79.8638 99.3965 -64.2919C108.458 -48.933 118.006 -29.6768 119.362 -12.8269C122.308 23.8664 62.3379 64.9694 17.3062 61.6247C-25.3895 58.4528 -84.3074 18.5415 -60.7577 -17.864Z" stroke="white"/>
<path fill-rule="evenodd" clip-rule="evenodd" d="M-44.9857 -19.8787C-28.6916 -43.6854 10.8871 -77.6251 47.529 -78.4312C89.5877 -79.3523 100.146 -41.584 94.6637 -14.2135C89.0946 13.7213 40.6038 54.1552 1.93878 48.6915C-35.798 43.3602 -64.2964 8.35539 -44.9857 -19.8787Z" stroke="white"/>
<path fill-rule="evenodd" clip-rule="evenodd" d="M-28.3328 -23.728C-14.5372 -43.661 14.9018 -68.5585 45.606 -69.3121C82.1908 -70.2037 81.5007 -38.3168 73.2046 -18.4701C64.5778 2.13594 26.5839 37.3307 -5.45026 31.7736C-36.6002 26.3489 -41.5534 -4.62343 -28.3328 -23.728Z" stroke="white"/>
<path fill-rule="evenodd" clip-rule="evenodd" d="M-13.8286 -26.0221C-4.72253 -40.2452 18.068 -58.2216 39.7337 -58.7968C66.2157 -59.4882 61.0679 -34.1969 54.2257 -21.9899C46.0929 -7.46471 18.8322 17.7743 -4.04479 13.684C-26.5685 9.6576 -21.3414 -14.3032 -13.8286 -26.0221Z" stroke="white"/>
</g>
</g>
<path d="M612.874 83.4882C611.658 83.4882 610.442 83.4455 609.226 83.3602C608.031 83.2962 606.783 83.1255 605.482 82.8482V61.3442C606.506 61.1522 607.626 61.0135 608.842 60.9282C610.058 60.8215 611.189 60.7682 612.234 60.7682C613.642 60.7682 614.933 60.8749 616.106 61.0882C617.301 61.2802 618.325 61.6215 619.178 62.1122C620.031 62.6029 620.693 63.2535 621.162 64.0642C621.653 64.8535 621.898 65.8349 621.898 67.0082C621.898 68.7789 621.045 70.1762 619.338 71.2002C620.746 71.7335 621.706 72.4589 622.218 73.3762C622.73 74.2935 622.986 75.3282 622.986 76.4802C622.986 78.8055 622.133 80.5549 620.426 81.7282C618.741 82.9015 616.223 83.4882 612.874 83.4882ZM610.346 73.5362V79.2642C610.709 79.3069 611.103 79.3389 611.53 79.3602C611.957 79.3815 612.426 79.3922 612.938 79.3922C614.431 79.3922 615.637 79.1789 616.554 78.7522C617.471 78.3255 617.93 77.5362 617.93 76.3842C617.93 75.3602 617.546 74.6349 616.778 74.2082C616.01 73.7602 614.911 73.5362 613.482 73.5362H610.346ZM610.346 69.7282H612.778C614.314 69.7282 615.413 69.5362 616.074 69.1522C616.735 68.7469 617.066 68.1069 617.066 67.2322C617.066 66.3362 616.725 65.7069 616.042 65.3442C615.359 64.9815 614.357 64.8002 613.034 64.8002C612.607 64.8002 612.149 64.8109 611.658 64.8322C611.167 64.8322 610.73 64.8535 610.346 64.8962V69.7282ZM636.806 70.5922C636.379 70.4855 635.878 70.3789 635.302 70.2722C634.726 70.1442 634.107 70.0802 633.446 70.0802C633.147 70.0802 632.785 70.1122 632.358 70.1762C631.953 70.2189 631.643 70.2722 631.43 70.3362V83.2002H626.662V67.2642C627.515 66.9655 628.518 66.6882 629.67 66.4322C630.843 66.1549 632.145 66.0162 633.574 66.0162C633.83 66.0162 634.139 66.0375 634.502 66.0802C634.865 66.1015 635.227 66.1442 635.59 66.2082C635.953 66.2509 636.315 66.3149 636.678 66.4002C637.041 66.4642 637.35 66.5495 637.606 66.6562L636.806 70.5922ZM646.281 79.8722C646.751 79.8722 647.199 79.8615 647.625 79.8402C648.052 79.8189 648.393 79.7869 648.649 79.7442V76.1282C648.457 76.0855 648.169 76.0429 647.785 76.0002C647.401 75.9575 647.049 75.9362 646.729 75.9362C646.281 75.9362 645.855 75.9682 645.449 76.0322C645.065 76.0749 644.724 76.1709 644.425 76.3202C644.127 76.4695 643.892 76.6722 643.721 76.9282C643.551 77.1842 643.465 77.5042 643.465 77.8882C643.465 78.6349 643.711 79.1575 644.201 79.4562C644.713 79.7335 645.407 79.8722 646.281 79.8722ZM645.897 65.9202C647.305 65.9202 648.479 66.0802 649.417 66.4002C650.356 66.7202 651.103 67.1789 651.657 67.7762C652.233 68.3735 652.639 69.0989 652.873 69.9522C653.108 70.8055 653.225 71.7549 653.225 72.8002V82.7202C652.543 82.8695 651.593 83.0402 650.377 83.2322C649.161 83.4455 647.689 83.5522 645.961 83.5522C644.873 83.5522 643.881 83.4562 642.985 83.2642C642.111 83.0722 641.353 82.7629 640.713 82.3362C640.073 81.8882 639.583 81.3122 639.241 80.6082C638.9 79.9042 638.729 79.0402 638.729 78.0162C638.729 77.0349 638.921 76.2029 639.305 75.5202C639.711 74.8375 640.244 74.2935 640.905 73.8882C641.567 73.4829 642.324 73.1949 643.177 73.0242C644.031 72.8322 644.916 72.7362 645.833 72.7362C646.452 72.7362 646.996 72.7682 647.465 72.8322C647.956 72.8749 648.351 72.9389 648.649 73.0242V72.5762C648.649 71.7655 648.404 71.1149 647.913 70.6242C647.423 70.1335 646.569 69.8882 645.353 69.8882C644.543 69.8882 643.743 69.9522 642.953 70.0802C642.164 70.1869 641.481 70.3469 640.905 70.5602L640.297 66.7202C640.575 66.6349 640.916 66.5495 641.321 66.4642C641.748 66.3575 642.207 66.2722 642.697 66.2082C643.188 66.1229 643.7 66.0589 644.233 66.0162C644.788 65.9522 645.343 65.9202 645.897 65.9202ZM657.537 66.9442C658.348 66.7095 659.393 66.4962 660.673 66.3042C661.953 66.0909 663.297 65.9842 664.705 65.9842C666.134 65.9842 667.318 66.1762 668.257 66.5602C669.217 66.9229 669.974 67.4455 670.529 68.1282C671.084 68.8109 671.478 69.6215 671.713 70.5602C671.948 71.4989 672.065 72.5442 672.065 73.6962V83.2002H667.297V74.2722C667.297 72.7362 667.094 71.6482 666.689 71.0082C666.284 70.3682 665.526 70.0482 664.417 70.0482C664.076 70.0482 663.713 70.0695 663.329 70.1122C662.945 70.1335 662.604 70.1655 662.305 70.2082V83.2002H657.537V66.9442ZM675.581 74.7842C675.581 73.5682 675.773 72.4269 676.157 71.3602C676.562 70.2722 677.138 69.3335 677.885 68.5442C678.631 67.7335 679.538 67.0935 680.605 66.6242C681.671 66.1549 682.887 65.9202 684.253 65.9202C685.149 65.9202 685.97 66.0055 686.717 66.1762C687.463 66.3255 688.189 66.5495 688.893 66.8482L687.901 70.6562C687.453 70.4855 686.962 70.3362 686.429 70.2082C685.895 70.0802 685.298 70.0162 684.637 70.0162C683.229 70.0162 682.173 70.4535 681.469 71.3282C680.786 72.2029 680.445 73.3549 680.445 74.7842C680.445 76.2989 680.765 77.4722 681.405 78.3042C682.066 79.1362 683.207 79.5522 684.829 79.5522C685.405 79.5522 686.023 79.4989 686.685 79.3922C687.346 79.2855 687.954 79.1149 688.509 78.8802L689.181 82.7842C688.626 83.0189 687.933 83.2215 687.101 83.3922C686.269 83.5629 685.351 83.6482 684.349 83.6482C682.813 83.6482 681.49 83.4242 680.381 82.9762C679.271 82.5069 678.354 81.8775 677.629 81.0882C676.925 80.2989 676.402 79.3709 676.061 78.3042C675.741 77.2162 675.581 76.0429 675.581 74.7842ZM692.381 83.2002V59.1362L697.149 58.3682V66.4322C697.469 66.3255 697.874 66.2295 698.365 66.1442C698.877 66.0375 699.367 65.9842 699.837 65.9842C701.202 65.9842 702.333 66.1762 703.229 66.5602C704.146 66.9229 704.871 67.4455 705.405 68.1282C705.959 68.8109 706.343 69.6215 706.557 70.5602C706.791 71.4989 706.909 72.5442 706.909 73.6962V83.2002H702.141V74.2722C702.141 72.7362 701.938 71.6482 701.533 71.0082C701.149 70.3682 700.423 70.0482 699.357 70.0482C698.93 70.0482 698.525 70.0909 698.141 70.1762C697.778 70.2402 697.447 70.3149 697.149 70.4002V83.2002H692.381ZM710.424 74.9122C710.424 73.4189 710.648 72.1175 711.096 71.0082C711.566 69.8775 712.174 68.9389 712.92 68.1922C713.667 67.4455 714.52 66.8802 715.48 66.4962C716.462 66.1122 717.464 65.9202 718.488 65.9202C720.878 65.9202 722.766 66.6562 724.152 68.1282C725.539 69.5789 726.232 71.7229 726.232 74.5602C726.232 74.8375 726.222 75.1469 726.2 75.4882C726.179 75.8082 726.158 76.0962 726.136 76.3522H715.32C715.427 77.3335 715.886 78.1122 716.696 78.6882C717.507 79.2642 718.595 79.5522 719.96 79.5522C720.835 79.5522 721.688 79.4775 722.52 79.3282C723.374 79.1575 724.067 78.9549 724.6 78.7202L725.24 82.5922C724.984 82.7202 724.643 82.8482 724.216 82.9762C723.79 83.1042 723.31 83.2109 722.776 83.2962C722.264 83.4029 721.71 83.4882 721.112 83.5522C720.515 83.6162 719.918 83.6482 719.32 83.6482C717.806 83.6482 716.483 83.4242 715.352 82.9762C714.243 82.5282 713.315 81.9202 712.568 81.1522C711.843 80.3629 711.299 79.4349 710.936 78.3682C710.595 77.3015 710.424 76.1495 710.424 74.9122ZM721.624 73.0882C721.603 72.6829 721.528 72.2882 721.4 71.9042C721.294 71.5202 721.112 71.1789 720.856 70.8802C720.622 70.5815 720.312 70.3362 719.928 70.1442C719.566 69.9522 719.107 69.8562 718.552 69.8562C718.019 69.8562 717.56 69.9522 717.176 70.1442C716.792 70.3149 716.472 70.5495 716.216 70.8482C715.96 71.1469 715.758 71.4989 715.608 71.9042C715.48 72.2882 715.384 72.6829 715.32 73.0882H721.624ZM734.744 79.7762C735.619 79.7762 736.237 79.6909 736.6 79.5202C736.963 79.3495 737.144 79.0189 737.144 78.5282C737.144 78.1442 736.909 77.8135 736.44 77.5362C735.971 77.2375 735.256 76.9069 734.296 76.5442C733.549 76.2669 732.867 75.9789 732.248 75.6802C731.651 75.3815 731.139 75.0295 730.712 74.6242C730.285 74.1975 729.955 73.6962 729.72 73.1202C729.485 72.5442 729.368 71.8509 729.368 71.0402C729.368 69.4615 729.955 68.2135 731.128 67.2962C732.301 66.3789 733.912 65.9202 735.96 65.9202C736.984 65.9202 737.965 66.0162 738.904 66.2082C739.843 66.3789 740.589 66.5709 741.144 66.7842L740.312 70.4962C739.757 70.3042 739.149 70.1335 738.488 69.9842C737.848 69.8349 737.123 69.7602 736.312 69.7602C734.819 69.7602 734.072 70.1762 734.072 71.0082C734.072 71.2002 734.104 71.3709 734.168 71.5202C734.232 71.6695 734.36 71.8189 734.552 71.9682C734.744 72.0962 735 72.2455 735.32 72.4162C735.661 72.5655 736.088 72.7362 736.6 72.9282C737.645 73.3122 738.509 73.6962 739.192 74.0802C739.875 74.4429 740.408 74.8482 740.792 75.2962C741.197 75.7229 741.475 76.2029 741.624 76.7362C741.795 77.2695 741.88 77.8882 741.88 78.5922C741.88 80.2562 741.251 81.5149 739.992 82.3682C738.755 83.2215 736.995 83.6482 734.712 83.6482C733.219 83.6482 731.971 83.5202 730.968 83.2642C729.987 83.0082 729.304 82.7949 728.92 82.6242L729.72 78.7522C730.531 79.0722 731.363 79.3282 732.216 79.5202C733.069 79.6909 733.912 79.7762 734.744 79.7762ZM753.451 61.0242H758.443V83.2002H753.451V61.0242ZM763.256 66.9442C764.066 66.7095 765.112 66.4962 766.392 66.3042C767.672 66.0909 769.016 65.9842 770.424 65.9842C771.853 65.9842 773.037 66.1762 773.976 66.5602C774.936 66.9229 775.693 67.4455 776.248 68.1282C776.802 68.8109 777.197 69.6215 777.432 70.5602C777.666 71.4989 777.784 72.5442 777.784 73.6962V83.2002H773.016V74.2722C773.016 72.7362 772.813 71.6482 772.408 71.0082C772.002 70.3682 771.245 70.0482 770.136 70.0482C769.794 70.0482 769.432 70.0695 769.048 70.1122C768.664 70.1335 768.322 70.1655 768.024 70.2082V83.2002H763.256V66.9442ZM789.395 58.3682C790.291 58.3682 791.113 58.4642 791.859 58.6562C792.606 58.8269 793.182 58.9975 793.587 59.1682L792.659 62.9762C792.233 62.7842 791.763 62.6455 791.251 62.5602C790.761 62.4535 790.302 62.4002 789.875 62.4002C789.299 62.4002 788.809 62.4855 788.403 62.6562C788.019 62.8055 787.71 63.0189 787.475 63.2962C787.262 63.5735 787.102 63.9042 786.995 64.2882C786.91 64.6722 786.867 65.0882 786.867 65.5362V66.3682H792.755V70.3362H786.867V83.2002H782.099V65.4722C782.099 63.2962 782.707 61.5682 783.923 60.2882C785.161 59.0082 786.985 58.3682 789.395 58.3682ZM811.093 74.7522C811.093 76.0749 810.901 77.2909 810.517 78.4002C810.133 79.4882 809.579 80.4269 808.853 81.2162C808.128 81.9842 807.253 82.5815 806.229 83.0082C805.227 83.4349 804.096 83.6482 802.837 83.6482C801.6 83.6482 800.469 83.4349 799.445 83.0082C798.443 82.5815 797.579 81.9842 796.853 81.2162C796.128 80.4269 795.563 79.4882 795.157 78.4002C794.752 77.2909 794.549 76.0749 794.549 74.7522C794.549 73.4295 794.752 72.2242 795.157 71.1362C795.584 70.0482 796.16 69.1202 796.885 68.3522C797.632 67.5842 798.507 66.9869 799.509 66.5602C800.533 66.1335 801.643 65.9202 802.837 65.9202C804.053 65.9202 805.163 66.1335 806.165 66.5602C807.189 66.9869 808.064 67.5842 808.789 68.3522C809.515 69.1202 810.08 70.0482 810.485 71.1362C810.891 72.2242 811.093 73.4295 811.093 74.7522ZM806.229 74.7522C806.229 73.2802 805.931 72.1282 805.333 71.2962C804.757 70.4429 803.925 70.0162 802.837 70.0162C801.749 70.0162 800.907 70.4429 800.309 71.2962C799.712 72.1282 799.413 73.2802 799.413 74.7522C799.413 76.2242 799.712 77.3975 800.309 78.2722C800.907 79.1255 801.749 79.5522 802.837 79.5522C803.925 79.5522 804.757 79.1255 805.333 78.2722C805.931 77.3975 806.229 76.2242 806.229 74.7522ZM824.931 70.5922C824.504 70.4855 824.003 70.3789 823.427 70.2722C822.851 70.1442 822.232 70.0802 821.571 70.0802C821.272 70.0802 820.91 70.1122 820.483 70.1762C820.078 70.2189 819.768 70.2722 819.555 70.3362V83.2002H814.787V67.2642C815.64 66.9655 816.643 66.6882 817.795 66.4322C818.968 66.1549 820.27 66.0162 821.699 66.0162C821.955 66.0162 822.264 66.0375 822.627 66.0802C822.99 66.1015 823.352 66.1442 823.715 66.2082C824.078 66.2509 824.44 66.3149 824.803 66.4002C825.166 66.4642 825.475 66.5495 825.731 66.6562L824.931 70.5922ZM837.535 74.2722C837.535 72.7362 837.332 71.6482 836.927 71.0082C836.543 70.3682 835.871 70.0482 834.911 70.0482C834.612 70.0482 834.303 70.0695 833.983 70.1122C833.663 70.1335 833.354 70.1655 833.055 70.2082V83.2002H828.287V66.9442C828.692 66.8375 829.162 66.7309 829.695 66.6242C830.25 66.4962 830.826 66.3895 831.423 66.3042C832.042 66.1975 832.671 66.1229 833.311 66.0802C833.951 66.0162 834.58 65.9842 835.199 65.9842C836.415 65.9842 837.396 66.1442 838.143 66.4642C838.911 66.7629 839.54 67.1255 840.031 67.5522C840.714 67.0615 841.492 66.6775 842.367 66.4002C843.263 66.1229 844.084 65.9842 844.831 65.9842C846.175 65.9842 847.274 66.1762 848.127 66.5602C849.002 66.9229 849.695 67.4455 850.207 68.1282C850.719 68.8109 851.071 69.6215 851.263 70.5602C851.455 71.4989 851.551 72.5442 851.551 73.6962V83.2002H846.783V74.2722C846.783 72.7362 846.58 71.6482 846.175 71.0082C845.791 70.3682 845.119 70.0482 844.159 70.0482C843.903 70.0482 843.54 70.1122 843.071 70.2402C842.623 70.3682 842.25 70.5282 841.951 70.7202C842.1 71.2109 842.196 71.7335 842.239 72.2882C842.282 72.8215 842.303 73.3975 842.303 74.0162V83.2002H837.535V74.2722ZM862.313 79.8722C862.782 79.8722 863.23 79.8615 863.657 79.8402C864.083 79.8189 864.425 79.7869 864.681 79.7442V76.1282C864.489 76.0855 864.201 76.0429 863.817 76.0002C863.433 75.9575 863.081 75.9362 862.761 75.9362C862.313 75.9362 861.886 75.9682 861.481 76.0322C861.097 76.0749 860.755 76.1709 860.457 76.3202C860.158 76.4695 859.923 76.6722 859.753 76.9282C859.582 77.1842 859.497 77.5042 859.497 77.8882C859.497 78.6349 859.742 79.1575 860.233 79.4562C860.745 79.7335 861.438 79.8722 862.313 79.8722ZM861.929 65.9202C863.337 65.9202 864.51 66.0802 865.449 66.4002C866.387 66.7202 867.134 67.1789 867.689 67.7762C868.265 68.3735 868.67 69.0989 868.905 69.9522C869.139 70.8055 869.257 71.7549 869.257 72.8002V82.7202C868.574 82.8695 867.625 83.0402 866.409 83.2322C865.193 83.4455 863.721 83.5522 861.993 83.5522C860.905 83.5522 859.913 83.4562 859.017 83.2642C858.142 83.0722 857.385 82.7629 856.745 82.3362C856.105 81.8882 855.614 81.3122 855.273 80.6082C854.931 79.9042 854.761 79.0402 854.761 78.0162C854.761 77.0349 854.953 76.2029 855.337 75.5202C855.742 74.8375 856.275 74.2935 856.937 73.8882C857.598 73.4829 858.355 73.1949 859.209 73.0242C860.062 72.8322 860.947 72.7362 861.865 72.7362C862.483 72.7362 863.027 72.7682 863.497 72.8322C863.987 72.8749 864.382 72.9389 864.681 73.0242V72.5762C864.681 71.7655 864.435 71.1149 863.945 70.6242C863.454 70.1335 862.601 69.8882 861.385 69.8882C860.574 69.8882 859.774 69.9522 858.985 70.0802C858.195 70.1869 857.513 70.3469 856.937 70.5602L856.329 66.7202C856.606 66.6349 856.947 66.5495 857.353 66.4642C857.779 66.3575 858.238 66.2722 858.729 66.2082C859.219 66.1229 859.731 66.0589 860.265 66.0162C860.819 65.9522 861.374 65.9202 861.929 65.9202ZM873.408 62.1762L878.176 61.4082V66.3682H883.904V70.3362H878.176V76.2562C878.176 77.2589 878.347 78.0589 878.688 78.6562C879.051 79.2535 879.765 79.5522 880.832 79.5522C881.344 79.5522 881.867 79.5095 882.4 79.4242C882.955 79.3175 883.456 79.1789 883.904 79.0082L884.576 82.7202C884 82.9549 883.36 83.1575 882.656 83.3282C881.952 83.4989 881.088 83.5842 880.064 83.5842C878.763 83.5842 877.685 83.4135 876.832 83.0722C875.979 82.7095 875.296 82.2189 874.784 81.6002C874.272 80.9602 873.909 80.1922 873.696 79.2962C873.504 78.4002 873.408 77.4082 873.408 76.3202V62.1762ZM892.555 83.2002H887.787V66.3682H892.555V83.2002ZM893.003 61.5042C893.003 62.3789 892.715 63.0722 892.139 63.5842C891.584 64.0749 890.923 64.3202 890.155 64.3202C889.387 64.3202 888.715 64.0749 888.139 63.5842C887.584 63.0722 887.307 62.3789 887.307 61.5042C887.307 60.6295 887.584 59.9469 888.139 59.4562C888.715 58.9442 889.387 58.6882 890.155 58.6882C890.923 58.6882 891.584 58.9442 892.139 59.4562C892.715 59.9469 893.003 60.6295 893.003 61.5042ZM912.781 74.7522C912.781 76.0749 912.589 77.2909 912.205 78.4002C911.821 79.4882 911.266 80.4269 910.541 81.2162C909.816 81.9842 908.941 82.5815 907.917 83.0082C906.914 83.4349 905.784 83.6482 904.525 83.6482C903.288 83.6482 902.157 83.4349 901.133 83.0082C900.13 82.5815 899.266 81.9842 898.541 81.2162C897.816 80.4269 897.25 79.4882 896.845 78.4002C896.44 77.2909 896.237 76.0749 896.237 74.7522C896.237 73.4295 896.44 72.2242 896.845 71.1362C897.272 70.0482 897.848 69.1202 898.573 68.3522C899.32 67.5842 900.194 66.9869 901.197 66.5602C902.221 66.1335 903.33 65.9202 904.525 65.9202C905.741 65.9202 906.85 66.1335 907.853 66.5602C908.877 66.9869 909.752 67.5842 910.477 68.3522C911.202 69.1202 911.768 70.0482 912.173 71.1362C912.578 72.2242 912.781 73.4295 912.781 74.7522ZM907.917 74.7522C907.917 73.2802 907.618 72.1282 907.021 71.2962C906.445 70.4429 905.613 70.0162 904.525 70.0162C903.437 70.0162 902.594 70.4429 901.997 71.2962C901.4 72.1282 901.101 73.2802 901.101 74.7522C901.101 76.2242 901.4 77.3975 901.997 78.2722C902.594 79.1255 903.437 79.5522 904.525 79.5522C905.613 79.5522 906.445 79.1255 907.021 78.2722C907.618 77.3975 907.917 76.2242 907.917 74.7522ZM916.474 66.9442C917.285 66.7095 918.33 66.4962 919.61 66.3042C920.89 66.0909 922.234 65.9842 923.642 65.9842C925.072 65.9842 926.256 66.1762 927.194 66.5602C928.154 66.9229 928.912 67.4455 929.466 68.1282C930.021 68.8109 930.416 69.6215 930.65 70.5602C930.885 71.4989 931.002 72.5442 931.002 73.6962V83.2002H926.234V74.2722C926.234 72.7362 926.032 71.6482 925.626 71.0082C925.221 70.3682 924.464 70.0482 923.354 70.0482C923.013 70.0482 922.65 70.0695 922.266 70.1122C921.882 70.1335 921.541 70.1655 921.242 70.2082V83.2002H916.474V66.9442Z" fill="white"/>
<g clip-path="url(#clip1_3543_72)">
<g clip-path="url(#clip2_3543_72)">
<path d="M425.298 162.672C425.106 161.52 424.738 160.656 424.194 160.08C423.682 159.504 422.93 159.216 421.938 159.216C420.434 159.216 419.378 159.952 418.77 161.424C418.162 162.896 417.874 165.168 417.906 168.24C418.45 167.152 419.33 166.288 420.546 165.648C421.794 165.008 423.186 164.688 424.722 164.688C427.858 164.688 430.354 165.648 432.21 167.568C434.066 169.488 434.994 172.24 434.994 175.824C434.994 178.16 434.498 180.208 433.506 181.968C432.546 183.728 431.154 185.104 429.33 186.096C427.506 187.056 425.33 187.536 422.802 187.536C417.81 187.536 414.338 186 412.386 182.928C410.466 179.824 409.506 175.536 409.506 170.064C409.506 165.776 409.938 162.288 410.802 159.6C411.698 156.912 413.09 154.928 414.978 153.648C416.898 152.336 419.41 151.68 422.514 151.68C426.194 151.68 428.978 152.736 430.866 154.848C432.786 156.928 433.858 159.536 434.082 162.672H425.298ZM418.578 175.584C418.578 176.8 418.914 177.744 419.586 178.416C420.258 179.088 421.218 179.424 422.466 179.424C423.618 179.424 424.514 179.12 425.154 178.512C425.826 177.872 426.162 176.928 426.162 175.68C426.162 174.464 425.826 173.536 425.154 172.896C424.482 172.256 423.57 171.936 422.418 171.936C421.298 171.936 420.37 172.256 419.634 172.896C418.93 173.536 418.578 174.432 418.578 175.584ZM442.331 182.4C440.091 179.296 438.971 175.104 438.971 169.824C438.971 164.544 440.091 160.368 442.331 157.296C444.603 154.192 448.123 152.64 452.891 152.64C457.659 152.64 461.179 154.192 463.451 157.296C465.723 160.4 466.859 164.576 466.859 169.824C466.859 175.104 465.723 179.296 463.451 182.4C461.179 185.504 457.659 187.056 452.891 187.056C448.123 187.056 444.603 185.504 442.331 182.4ZM456.587 175.968C457.227 174.528 457.547 172.48 457.547 169.824C457.547 167.2 457.227 165.168 456.587 163.728C455.979 162.288 454.747 161.568 452.891 161.568C451.035 161.568 449.787 162.288 449.147 163.728C448.539 165.168 448.235 167.2 448.235 169.824C448.235 172.48 448.539 174.528 449.147 175.968C449.787 177.408 451.035 178.128 452.891 178.128C454.747 178.128 455.979 177.408 456.587 175.968ZM502.998 174.96H495.27V182.88H486.198V174.96H478.518V166.32H486.198V158.4H495.27V166.32H502.998V174.96Z" fill="white"/>
<path d="M420.756 217.738C421.212 217.81 421.626 217.996 421.998 218.296C422.382 218.596 422.682 218.968 422.898 219.412C423.126 219.856 423.24 220.33 423.24 220.834C423.24 221.47 423.078 222.046 422.754 222.562C422.43 223.066 421.956 223.468 421.332 223.768C420.72 224.056 419.994 224.2 419.154 224.2H414.474V211.654H418.974C419.826 211.654 420.552 211.798 421.152 212.086C421.752 212.362 422.202 212.74 422.502 213.22C422.802 213.7 422.952 214.24 422.952 214.84C422.952 215.584 422.748 216.202 422.34 216.694C421.944 217.174 421.416 217.522 420.756 217.738ZM416.112 217.072H418.866C419.634 217.072 420.228 216.892 420.648 216.532C421.068 216.172 421.278 215.674 421.278 215.038C421.278 214.402 421.068 213.904 420.648 213.544C420.228 213.184 419.622 213.004 418.83 213.004H416.112V217.072ZM419.01 222.85C419.826 222.85 420.462 222.658 420.918 222.274C421.374 221.89 421.602 221.356 421.602 220.672C421.602 219.976 421.362 219.43 420.882 219.034C420.402 218.626 419.76 218.422 418.956 218.422H416.112V222.85H419.01ZM427.205 215.938C427.493 215.374 427.901 214.936 428.429 214.624C428.969 214.312 429.623 214.156 430.391 214.156V215.848H429.959C428.123 215.848 427.205 216.844 427.205 218.836V224.2H425.567V214.336H427.205V215.938ZM431.724 219.232C431.724 218.224 431.928 217.342 432.336 216.586C432.744 215.818 433.302 215.224 434.01 214.804C434.73 214.384 435.528 214.174 436.404 214.174C437.268 214.174 438.018 214.36 438.654 214.732C439.29 215.104 439.764 215.572 440.076 216.136V214.336H441.732V224.2H440.076V222.364C439.752 222.94 439.266 223.42 438.618 223.804C437.982 224.176 437.238 224.362 436.386 224.362C435.51 224.362 434.718 224.146 434.01 223.714C433.302 223.282 432.744 222.676 432.336 221.896C431.928 221.116 431.724 220.228 431.724 219.232ZM440.076 219.25C440.076 218.506 439.926 217.858 439.626 217.306C439.326 216.754 438.918 216.334 438.402 216.046C437.898 215.746 437.34 215.596 436.728 215.596C436.116 215.596 435.558 215.74 435.054 216.028C434.55 216.316 434.148 216.736 433.848 217.288C433.548 217.84 433.398 218.488 433.398 219.232C433.398 219.988 433.548 220.648 433.848 221.212C434.148 221.764 434.55 222.19 435.054 222.49C435.558 222.778 436.116 222.922 436.728 222.922C437.34 222.922 437.898 222.778 438.402 222.49C438.918 222.19 439.326 221.764 439.626 221.212C439.926 220.648 440.076 219.994 440.076 219.25ZM449.36 214.156C450.56 214.156 451.532 214.522 452.276 215.254C453.02 215.974 453.392 217.018 453.392 218.386V224.2H451.772V218.62C451.772 217.636 451.526 216.886 451.034 216.37C450.542 215.842 449.87 215.578 449.018 215.578C448.154 215.578 447.464 215.848 446.948 216.388C446.444 216.928 446.192 217.714 446.192 218.746V224.2H444.554V214.336H446.192V215.74C446.516 215.236 446.954 214.846 447.506 214.57C448.07 214.294 448.688 214.156 449.36 214.156ZM455.51 219.25C455.51 218.23 455.714 217.342 456.122 216.586C456.53 215.818 457.094 215.224 457.814 214.804C458.546 214.384 459.38 214.174 460.316 214.174C461.528 214.174 462.524 214.468 463.304 215.056C464.096 215.644 464.618 216.46 464.87 217.504H463.106C462.938 216.904 462.608 216.43 462.116 216.082C461.636 215.734 461.036 215.56 460.316 215.56C459.38 215.56 458.624 215.884 458.048 216.532C457.472 217.168 457.184 218.074 457.184 219.25C457.184 220.438 457.472 221.356 458.048 222.004C458.624 222.652 459.38 222.976 460.316 222.976C461.036 222.976 461.636 222.808 462.116 222.472C462.596 222.136 462.926 221.656 463.106 221.032H464.87C464.606 222.04 464.078 222.85 463.286 223.462C462.494 224.062 461.504 224.362 460.316 224.362C459.38 224.362 458.546 224.152 457.814 223.732C457.094 223.312 456.53 222.718 456.122 221.95C455.714 221.182 455.51 220.282 455.51 219.25ZM472.006 214.156C472.75 214.156 473.422 214.318 474.022 214.642C474.622 214.954 475.09 215.428 475.426 216.064C475.774 216.7 475.948 217.474 475.948 218.386V224.2H474.328V218.62C474.328 217.636 474.082 216.886 473.59 216.37C473.098 215.842 472.426 215.578 471.574 215.578C470.71 215.578 470.02 215.848 469.504 216.388C469 216.928 468.748 217.714 468.748 218.746V224.2H467.11V210.88H468.748V215.74C469.072 215.236 469.516 214.846 470.08 214.57C470.656 214.294 471.298 214.156 472.006 214.156ZM487.677 218.89C487.677 219.202 487.659 219.532 487.623 219.88H479.739C479.799 220.852 480.129 221.614 480.729 222.166C481.341 222.706 482.079 222.976 482.943 222.976C483.651 222.976 484.239 222.814 484.707 222.49C485.187 222.154 485.523 221.71 485.715 221.158H487.479C487.215 222.106 486.687 222.88 485.895 223.48C485.103 224.068 484.119 224.362 482.943 224.362C482.007 224.362 481.167 224.152 480.423 223.732C479.691 223.312 479.115 222.718 478.695 221.95C478.275 221.17 478.065 220.27 478.065 219.25C478.065 218.23 478.269 217.336 478.677 216.568C479.085 215.8 479.655 215.212 480.387 214.804C481.131 214.384 481.983 214.174 482.943 214.174C483.879 214.174 484.707 214.378 485.427 214.786C486.147 215.194 486.699 215.758 487.083 216.478C487.479 217.186 487.677 217.99 487.677 218.89ZM485.985 218.548C485.985 217.924 485.847 217.39 485.571 216.946C485.295 216.49 484.917 216.148 484.437 215.92C483.969 215.68 483.447 215.56 482.871 215.56C482.043 215.56 481.335 215.824 480.747 216.352C480.171 216.88 479.841 217.612 479.757 218.548H485.985ZM493.385 224.362C492.629 224.362 491.951 224.236 491.351 223.984C490.751 223.72 490.277 223.36 489.929 222.904C489.581 222.436 489.389 221.902 489.353 221.302H491.045C491.093 221.794 491.321 222.196 491.729 222.508C492.149 222.82 492.695 222.976 493.367 222.976C493.991 222.976 494.483 222.838 494.843 222.562C495.203 222.286 495.383 221.938 495.383 221.518C495.383 221.086 495.191 220.768 494.807 220.564C494.423 220.348 493.829 220.138 493.025 219.934C492.293 219.742 491.693 219.55 491.225 219.358C490.769 219.154 490.373 218.86 490.037 218.476C489.713 218.08 489.551 217.564 489.551 216.928C489.551 216.424 489.701 215.962 490.001 215.542C490.301 215.122 490.727 214.792 491.279 214.552C491.831 214.3 492.461 214.174 493.169 214.174C494.261 214.174 495.143 214.45 495.815 215.002C496.487 215.554 496.847 216.31 496.895 217.27H495.257C495.221 216.754 495.011 216.34 494.627 216.028C494.255 215.716 493.751 215.56 493.115 215.56C492.527 215.56 492.059 215.686 491.711 215.938C491.363 216.19 491.189 216.52 491.189 216.928C491.189 217.252 491.291 217.522 491.495 217.738C491.711 217.942 491.975 218.11 492.287 218.242C492.611 218.362 493.055 218.5 493.619 218.656C494.327 218.848 494.903 219.04 495.347 219.232C495.791 219.412 496.169 219.688 496.481 220.06C496.805 220.432 496.973 220.918 496.985 221.518C496.985 222.058 496.835 222.544 496.535 222.976C496.235 223.408 495.809 223.75 495.257 224.002C494.717 224.242 494.093 224.362 493.385 224.362Z" fill="white"/>
</g>
<line opacity="0.4" x1="598.5" y1="138.2" x2="598.5" y2="234.2" stroke="white"/>
<g clip-path="url(#clip3_3543_72)">
<path d="M673.293 151.536C675.757 151.536 677.853 151.968 679.581 152.832C681.341 153.664 682.669 154.816 683.565 156.288C684.461 157.728 684.909 159.36 684.909 161.184C684.909 163.392 684.365 165.168 683.277 166.512C682.189 167.824 680.893 168.656 679.389 169.008V169.2C683.485 170.672 685.533 173.392 685.533 177.36C685.533 179.376 685.069 181.152 684.141 182.688C683.213 184.224 681.869 185.424 680.109 186.288C678.381 187.12 676.301 187.536 673.869 187.536C669.837 187.536 666.653 186.56 664.317 184.608C662.013 182.656 660.797 179.632 660.669 175.536H669.885C669.821 178.32 671.021 179.712 673.485 179.712C674.349 179.712 675.037 179.44 675.549 178.896C676.093 178.32 676.365 177.584 676.365 176.688C676.365 175.536 675.965 174.672 675.165 174.096C674.397 173.52 673.149 173.232 671.421 173.232H669.741V165.6H671.373C672.621 165.6 673.661 165.392 674.493 164.976C675.325 164.528 675.741 163.648 675.741 162.336C675.741 161.344 675.501 160.608 675.021 160.128C674.541 159.616 673.901 159.36 673.101 159.36C672.205 159.36 671.517 159.712 671.037 160.416C670.589 161.088 670.333 161.952 670.269 163.008H661.101C661.229 159.296 662.333 156.464 664.413 154.512C666.525 152.528 669.485 151.536 673.293 151.536ZM693.23 182.4C690.99 179.296 689.87 175.104 689.87 169.824C689.87 164.544 690.99 160.368 693.23 157.296C695.502 154.192 699.022 152.64 703.79 152.64C708.558 152.64 712.078 154.192 714.35 157.296C716.622 160.4 717.758 164.576 717.758 169.824C717.758 175.104 716.622 179.296 714.35 182.4C712.078 185.504 708.558 187.056 703.79 187.056C699.022 187.056 695.502 185.504 693.23 182.4ZM707.486 175.968C708.126 174.528 708.446 172.48 708.446 169.824C708.446 167.2 708.126 165.168 707.486 163.728C706.878 162.288 705.646 161.568 703.79 161.568C701.934 161.568 700.686 162.288 700.046 163.728C699.438 165.168 699.134 167.2 699.134 169.824C699.134 172.48 699.438 174.528 700.046 175.968C700.686 177.408 701.934 178.128 703.79 178.128C705.646 178.128 706.878 177.408 707.486 175.968ZM724.589 182.4C722.349 179.296 721.229 175.104 721.229 169.824C721.229 164.544 722.349 160.368 724.589 157.296C726.861 154.192 730.381 152.64 735.149 152.64C739.917 152.64 743.437 154.192 745.709 157.296C747.981 160.4 749.117 164.576 749.117 169.824C749.117 175.104 747.981 179.296 745.709 182.4C743.437 185.504 739.917 187.056 735.149 187.056C730.381 187.056 726.861 185.504 724.589 182.4ZM738.845 175.968C739.485 174.528 739.805 172.48 739.805 169.824C739.805 167.2 739.485 165.168 738.845 163.728C738.237 162.288 737.005 161.568 735.149 161.568C733.293 161.568 732.045 162.288 731.405 163.728C730.797 165.168 730.493 167.2 730.493 169.824C730.493 172.48 730.797 174.528 731.405 175.968C732.045 177.408 733.293 178.128 735.149 178.128C737.005 178.128 738.237 177.408 738.845 175.968ZM792.909 153.36V187.2H783.549V168L777.26 187.2H769.149L762.861 168V187.2H753.405V153.36H764.973L773.325 175.344L781.437 153.36H792.909ZM821.115 174.96H813.387V182.88H804.315V174.96H796.635V166.32H804.315V158.4H813.387V166.32H821.115V174.96Z" fill="white"/>
<path d="M694.207 211.654L690.571 224.2H688.735L685.819 214.102L682.795 224.2L680.977 224.218L677.467 211.654H679.213L681.949 222.292L684.973 211.654H686.809L689.689 222.256L692.443 211.654H694.207ZM700.601 224.362C699.677 224.362 698.837 224.152 698.081 223.732C697.337 223.312 696.749 222.718 696.317 221.95C695.897 221.17 695.687 220.27 695.687 219.25C695.687 218.242 695.903 217.354 696.335 216.586C696.779 215.806 697.379 215.212 698.135 214.804C698.891 214.384 699.737 214.174 700.673 214.174C701.609 214.174 702.455 214.384 703.211 214.804C703.967 215.212 704.561 215.8 704.993 216.568C705.437 217.336 705.659 218.23 705.659 219.25C705.659 220.27 705.431 221.17 704.975 221.95C704.531 222.718 703.925 223.312 703.157 223.732C702.389 224.152 701.537 224.362 700.601 224.362ZM700.601 222.922C701.189 222.922 701.741 222.784 702.257 222.508C702.773 222.232 703.187 221.818 703.499 221.266C703.823 220.714 703.985 220.042 703.985 219.25C703.985 218.458 703.829 217.786 703.517 217.234C703.205 216.682 702.797 216.274 702.293 216.01C701.789 215.734 701.243 215.596 700.655 215.596C700.055 215.596 699.503 215.734 698.999 216.01C698.507 216.274 698.111 216.682 697.811 217.234C697.511 217.786 697.361 218.458 697.361 219.25C697.361 220.054 697.505 220.732 697.793 221.284C698.093 221.836 698.489 222.25 698.981 222.526C699.473 222.79 700.013 222.922 700.601 222.922ZM709.751 215.938C710.039 215.374 710.447 214.936 710.975 214.624C711.515 214.312 712.169 214.156 712.937 214.156V215.848H712.505C710.669 215.848 709.751 216.844 709.751 218.836V224.2H708.113V214.336H709.751V215.938ZM717.126 215.686V221.5C717.126 221.98 717.228 222.322 717.432 222.526C717.636 222.718 717.99 222.814 718.494 222.814H719.7V224.2H718.224C717.312 224.2 716.628 223.99 716.172 223.57C715.716 223.15 715.488 222.46 715.488 221.5V215.686H714.21V214.336H715.488V211.852H717.126V214.336H719.7V215.686H717.126ZM726.881 214.156C727.625 214.156 728.297 214.318 728.897 214.642C729.497 214.954 729.965 215.428 730.301 216.064C730.649 216.7 730.823 217.474 730.823 218.386V224.2H729.203V218.62C729.203 217.636 728.957 216.886 728.465 216.37C727.973 215.842 727.301 215.578 726.449 215.578C725.585 215.578 724.895 215.848 724.379 216.388C723.875 216.928 723.623 217.714 723.623 218.746V224.2H721.985V210.88H723.623V215.74C723.947 215.236 724.391 214.846 724.955 214.57C725.531 214.294 726.173 214.156 726.881 214.156ZM738.285 217.918C738.285 216.694 738.561 215.596 739.113 214.624C739.665 213.64 740.415 212.872 741.363 212.32C742.323 211.768 743.385 211.492 744.549 211.492C745.917 211.492 747.111 211.822 748.131 212.482C749.151 213.142 749.895 214.078 750.363 215.29H748.401C748.053 214.534 747.549 213.952 746.889 213.544C746.241 213.136 745.461 212.932 744.549 212.932C743.673 212.932 742.887 213.136 742.191 213.544C741.495 213.952 740.949 214.534 740.553 215.29C740.157 216.034 739.959 216.91 739.959 217.918C739.959 218.914 740.157 219.79 740.553 220.546C740.949 221.29 741.495 221.866 742.191 222.274C742.887 222.682 743.673 222.886 744.549 222.886C745.461 222.886 746.241 222.688 746.889 222.292C747.549 221.884 748.053 221.302 748.401 220.546H750.363C749.895 221.746 749.151 222.676 748.131 223.336C747.111 223.984 745.917 224.308 744.549 224.308C743.385 224.308 742.323 224.038 741.363 223.498C740.415 222.946 739.665 222.184 739.113 221.212C738.561 220.24 738.285 219.142 738.285 217.918ZM754.739 215.938C755.027 215.374 755.435 214.936 755.963 214.624C756.503 214.312 757.157 214.156 757.925 214.156V215.848H757.493C755.657 215.848 754.739 216.844 754.739 218.836V224.2H753.101V214.336H754.739V215.938ZM769.116 218.89C769.116 219.202 769.098 219.532 769.062 219.88H761.178C761.238 220.852 761.568 221.614 762.168 222.166C762.78 222.706 763.518 222.976 764.382 222.976C765.09 222.976 765.678 222.814 766.146 222.49C766.626 222.154 766.962 221.71 767.154 221.158H768.918C768.654 222.106 768.126 222.88 767.334 223.48C766.542 224.068 765.558 224.362 764.382 224.362C763.446 224.362 762.606 224.152 761.862 223.732C761.13 223.312 760.554 222.718 760.134 221.95C759.714 221.17 759.504 220.27 759.504 219.25C759.504 218.23 759.708 217.336 760.116 216.568C760.524 215.8 761.094 215.212 761.826 214.804C762.57 214.384 763.422 214.174 764.382 214.174C765.318 214.174 766.146 214.378 766.866 214.786C767.586 215.194 768.138 215.758 768.522 216.478C768.918 217.186 769.116 217.99 769.116 218.89ZM767.424 218.548C767.424 217.924 767.286 217.39 767.01 216.946C766.734 216.49 766.356 216.148 765.876 215.92C765.408 215.68 764.886 215.56 764.31 215.56C763.482 215.56 762.774 215.824 762.186 216.352C761.61 216.88 761.28 217.612 761.196 218.548H767.424ZM770.966 219.232C770.966 218.224 771.17 217.342 771.578 216.586C771.986 215.818 772.544 215.224 773.252 214.804C773.972 214.384 774.776 214.174 775.664 214.174C776.432 214.174 777.146 214.354 777.806 214.714C778.466 215.062 778.97 215.524 779.318 216.1V210.88H780.974V224.2H779.318V222.346C778.994 222.934 778.514 223.42 777.878 223.804C777.242 224.176 776.498 224.362 775.646 224.362C774.77 224.362 773.972 224.146 773.252 223.714C772.544 223.282 771.986 222.676 771.578 221.896C771.17 221.116 770.966 220.228 770.966 219.232ZM779.318 219.25C779.318 218.506 779.168 217.858 778.868 217.306C778.568 216.754 778.16 216.334 777.644 216.046C777.14 215.746 776.582 215.596 775.97 215.596C775.358 215.596 774.8 215.74 774.296 216.028C773.792 216.316 773.39 216.736 773.09 217.288C772.79 217.84 772.64 218.488 772.64 219.232C772.64 219.988 772.79 220.648 773.09 221.212C773.39 221.764 773.792 222.19 774.296 222.49C774.8 222.778 775.358 222.922 775.97 222.922C776.582 222.922 777.14 222.778 777.644 222.49C778.16 222.19 778.568 221.764 778.868 221.212C779.168 220.648 779.318 219.994 779.318 219.25ZM784.888 212.734C784.576 212.734 784.312 212.626 784.096 212.41C783.88 212.194 783.772 211.93 783.772 211.618C783.772 211.306 783.88 211.042 784.096 210.826C784.312 210.61 784.576 210.502 784.888 210.502C785.188 210.502 785.44 210.61 785.644 210.826C785.86 211.042 785.968 211.306 785.968 211.618C785.968 211.93 785.86 212.194 785.644 212.41C785.44 212.626 785.188 212.734 784.888 212.734ZM785.68 214.336V224.2H784.042V214.336H785.68ZM790.77 215.686V221.5C790.77 221.98 790.872 222.322 791.076 222.526C791.28 222.718 791.634 222.814 792.138 222.814H793.344V224.2H791.868C790.956 224.2 790.272 223.99 789.816 223.57C789.36 223.15 789.132 222.46 789.132 221.5V215.686H787.854V214.336H789.132V211.852H790.77V214.336H793.344V215.686H790.77ZM799.121 224.362C798.365 224.362 797.687 224.236 797.087 223.984C796.487 223.72 796.013 223.36 795.665 222.904C795.317 222.436 795.125 221.902 795.089 221.302H796.781C796.829 221.794 797.057 222.196 797.465 222.508C797.885 222.82 798.431 222.976 799.103 222.976C799.727 222.976 800.219 222.838 800.579 222.562C800.939 222.286 801.119 221.938 801.119 221.518C801.119 221.086 800.927 220.768 800.543 220.564C800.159 220.348 799.565 220.138 798.761 219.934C798.029 219.742 797.429 219.55 796.961 219.358C796.505 219.154 796.109 218.86 795.773 218.476C795.449 218.08 795.287 217.564 795.287 216.928C795.287 216.424 795.437 215.962 795.737 215.542C796.037 215.122 796.463 214.792 797.015 214.552C797.567 214.3 798.197 214.174 798.905 214.174C799.997 214.174 800.879 214.45 801.551 215.002C802.223 215.554 802.583 216.31 802.631 217.27H800.993C800.957 216.754 800.747 216.34 800.363 216.028C799.991 215.716 799.487 215.56 798.851 215.56C798.263 215.56 797.795 215.686 797.447 215.938C797.099 216.19 796.925 216.52 796.925 216.928C796.925 217.252 797.027 217.522 797.231 217.738C797.447 217.942 797.711 218.11 798.023 218.242C798.347 218.362 798.791 218.5 799.355 218.656C800.063 218.848 800.639 219.04 801.083 219.232C801.527 219.412 801.905 219.688 802.217 220.06C802.541 220.432 802.709 220.918 802.721 221.518C802.721 222.058 802.571 222.544 802.271 222.976C801.971 223.408 801.545 223.75 800.993 224.002C800.453 224.242 799.829 224.362 799.121 224.362Z" fill="white"/>
</g>
<line opacity="0.4" x1="883.5" y1="138.2" x2="883.5" y2="234.2" stroke="white"/>
<g clip-path="url(#clip4_3543_72)">
<path d="M968.722 179.712C973.106 176.48 976.61 173.52 979.234 170.832C981.858 168.112 983.17 165.664 983.17 163.488C983.17 161.376 982.322 160.32 980.626 160.32C979.666 160.32 978.962 160.688 978.514 161.424C978.098 162.16 977.874 163.376 977.842 165.072H968.674C968.866 160.816 970.146 157.648 972.514 155.568C974.882 153.456 977.842 152.4 981.394 152.4C985.266 152.4 988.13 153.36 989.986 155.28C991.842 157.2 992.77 159.632 992.77 162.576C992.77 165.744 991.634 168.784 989.362 171.696C987.122 174.608 984.354 177.088 981.058 179.136H993.25V186.768H968.722V179.712ZM1021.97 160.56H1007.38V166.032C1008.05 165.36 1008.92 164.832 1009.97 164.448C1011.06 164.064 1012.26 163.872 1013.57 163.872C1015.81 163.872 1017.69 164.384 1019.19 165.408C1020.73 166.432 1021.86 167.808 1022.6 169.536C1023.33 171.232 1023.7 173.104 1023.7 175.152C1023.7 178.928 1022.65 181.888 1020.53 184.032C1018.42 186.176 1015.46 187.248 1011.65 187.248C1009 187.248 1006.69 186.784 1004.74 185.856C1002.79 184.928 1001.3 183.632 1000.28 181.968C999.254 180.304 998.742 178.384 998.742 176.208H1007.96C1008.05 177.008 1008.36 177.696 1008.87 178.272C1009.38 178.848 1010.15 179.136 1011.17 179.136C1012.29 179.136 1013.13 178.768 1013.67 178.032C1014.25 177.264 1014.53 176.256 1014.53 175.008C1014.53 173.792 1014.23 172.864 1013.62 172.224C1013.01 171.584 1012.17 171.264 1011.08 171.264C1010.25 171.264 1009.56 171.456 1009.01 171.84C1008.5 172.224 1008.18 172.72 1008.05 173.328H998.838V152.256H1021.97V160.56ZM1030.87 182.4C1028.63 179.296 1027.51 175.104 1027.51 169.824C1027.51 164.544 1028.63 160.368 1030.87 157.296C1033.14 154.192 1036.66 152.64 1041.43 152.64C1046.2 152.64 1049.72 154.192 1051.99 157.296C1054.26 160.4 1055.4 164.576 1055.4 169.824C1055.4 175.104 1054.26 179.296 1051.99 182.4C1049.72 185.504 1046.2 187.056 1041.43 187.056C1036.66 187.056 1033.14 185.504 1030.87 182.4ZM1045.13 175.968C1045.77 174.528 1046.09 172.48 1046.09 169.824C1046.09 167.2 1045.77 165.168 1045.13 163.728C1044.52 162.288 1043.29 161.568 1041.43 161.568C1039.57 161.568 1038.33 162.288 1037.69 163.728C1037.08 165.168 1036.77 167.2 1036.77 169.824C1036.77 172.48 1037.08 174.528 1037.69 175.968C1038.33 177.408 1039.57 178.128 1041.43 178.128C1043.29 178.128 1044.52 177.408 1045.13 175.968ZM1082.68 174.96H1074.95V182.88H1065.88V174.96H1058.2V166.32H1065.88V158.4H1074.95V166.32H1082.68V174.96Z" fill="white"/>
<path d="M995.412 217.918C995.412 216.694 995.688 215.596 996.24 214.624C996.792 213.64 997.542 212.872 998.49 212.32C999.45 211.768 1000.51 211.492 1001.68 211.492C1003.04 211.492 1004.24 211.822 1005.26 212.482C1006.28 213.142 1007.02 214.078 1007.49 215.29H1005.53C1005.18 214.534 1004.68 213.952 1004.02 213.544C1003.37 213.136 1002.59 212.932 1001.68 212.932C1000.8 212.932 1000.01 213.136 999.318 213.544C998.622 213.952 998.076 214.534 997.68 215.29C997.284 216.034 997.086 216.91 997.086 217.918C997.086 218.914 997.284 219.79 997.68 220.546C998.076 221.29 998.622 221.866 999.318 222.274C1000.01 222.682 1000.8 222.886 1001.68 222.886C1002.59 222.886 1003.37 222.688 1004.02 222.292C1004.68 221.884 1005.18 221.302 1005.53 220.546H1007.49C1007.02 221.746 1006.28 222.676 1005.26 223.336C1004.24 223.984 1003.04 224.308 1001.68 224.308C1000.51 224.308 999.45 224.038 998.49 223.498C997.542 222.946 996.792 222.184 996.24 221.212C995.688 220.24 995.412 219.142 995.412 217.918ZM1011.62 210.88V224.2H1009.98V210.88H1011.62ZM1015.31 212.734C1015 212.734 1014.74 212.626 1014.52 212.41C1014.3 212.194 1014.2 211.93 1014.2 211.618C1014.2 211.306 1014.3 211.042 1014.52 210.826C1014.74 210.61 1015 210.502 1015.31 210.502C1015.61 210.502 1015.86 210.61 1016.07 210.826C1016.28 211.042 1016.39 211.306 1016.39 211.618C1016.39 211.93 1016.28 212.194 1016.07 212.41C1015.86 212.626 1015.61 212.734 1015.31 212.734ZM1016.1 214.336V224.2H1014.47V214.336H1016.1ZM1027.95 218.89C1027.95 219.202 1027.93 219.532 1027.9 219.88H1020.01C1020.07 220.852 1020.4 221.614 1021 222.166C1021.61 222.706 1022.35 222.976 1023.22 222.976C1023.92 222.976 1024.51 222.814 1024.98 222.49C1025.46 222.154 1025.8 221.71 1025.99 221.158H1027.75C1027.49 222.106 1026.96 222.88 1026.17 223.48C1025.38 224.068 1024.39 224.362 1023.22 224.362C1022.28 224.362 1021.44 224.152 1020.7 223.732C1019.96 223.312 1019.39 222.718 1018.97 221.95C1018.55 221.17 1018.34 220.27 1018.34 219.25C1018.34 218.23 1018.54 217.336 1018.95 216.568C1019.36 215.8 1019.93 215.212 1020.66 214.804C1021.4 214.384 1022.26 214.174 1023.22 214.174C1024.15 214.174 1024.98 214.378 1025.7 214.786C1026.42 215.194 1026.97 215.758 1027.36 216.478C1027.75 217.186 1027.95 217.99 1027.95 218.89ZM1026.26 218.548C1026.26 217.924 1026.12 217.39 1025.84 216.946C1025.57 216.49 1025.19 216.148 1024.71 215.92C1024.24 215.68 1023.72 215.56 1023.14 215.56C1022.32 215.56 1021.61 215.824 1021.02 216.352C1020.44 216.88 1020.11 217.612 1020.03 218.548H1026.26ZM1034.97 214.156C1036.17 214.156 1037.14 214.522 1037.89 215.254C1038.63 215.974 1039 217.018 1039 218.386V224.2H1037.38V218.62C1037.38 217.636 1037.14 216.886 1036.65 216.37C1036.15 215.842 1035.48 215.578 1034.63 215.578C1033.77 215.578 1033.08 215.848 1032.56 216.388C1032.06 216.928 1031.8 217.714 1031.8 218.746V224.2H1030.17V214.336H1031.8V215.74C1032.13 215.236 1032.57 214.846 1033.12 214.57C1033.68 214.294 1034.3 214.156 1034.97 214.156ZM1043.73 215.686V221.5C1043.73 221.98 1043.83 222.322 1044.04 222.526C1044.24 222.718 1044.6 222.814 1045.1 222.814H1046.31V224.2H1044.83C1043.92 224.2 1043.23 223.99 1042.78 223.57C1042.32 223.15 1042.09 222.46 1042.09 221.5V215.686H1040.82V214.336H1042.09V211.852H1043.73V214.336H1046.31V215.686H1043.73ZM1051.84 224.362C1051.08 224.362 1050.4 224.236 1049.8 223.984C1049.2 223.72 1048.73 223.36 1048.38 222.904C1048.03 222.436 1047.84 221.902 1047.8 221.302H1049.5C1049.54 221.794 1049.77 222.196 1050.18 222.508C1050.6 222.82 1051.15 222.976 1051.82 222.976C1052.44 222.976 1052.93 222.838 1053.29 222.562C1053.65 222.286 1053.83 221.938 1053.83 221.518C1053.83 221.086 1053.64 220.768 1053.26 220.564C1052.87 220.348 1052.28 220.138 1051.48 219.934C1050.74 219.742 1050.14 219.55 1049.68 219.358C1049.22 219.154 1048.82 218.86 1048.49 218.476C1048.16 218.08 1048 217.564 1048 216.928C1048 216.424 1048.15 215.962 1048.45 215.542C1048.75 215.122 1049.18 214.792 1049.73 214.552C1050.28 214.3 1050.91 214.174 1051.62 214.174C1052.71 214.174 1053.59 214.45 1054.27 215.002C1054.94 215.554 1055.3 216.31 1055.35 217.27H1053.71C1053.67 216.754 1053.46 216.34 1053.08 216.028C1052.71 215.716 1052.2 215.56 1051.57 215.56C1050.98 215.56 1050.51 215.686 1050.16 215.938C1049.81 216.19 1049.64 216.52 1049.64 216.928C1049.64 217.252 1049.74 217.522 1049.95 217.738C1050.16 217.942 1050.43 218.11 1050.74 218.242C1051.06 218.362 1051.51 218.5 1052.07 218.656C1052.78 218.848 1053.35 219.04 1053.8 219.232C1054.24 219.412 1054.62 219.688 1054.93 220.06C1055.26 220.432 1055.42 220.918 1055.44 221.518C1055.44 222.058 1055.29 222.544 1054.99 222.976C1054.69 223.408 1054.26 223.75 1053.71 224.002C1053.17 224.242 1052.54 224.362 1051.84 224.362Z" fill="white"/>
</g>
</g>
<defs>
<clipPath id="clip0_3543_72">
<rect width="1536" height="305" fill="white" transform="translate(0 0.100098)"/>
</clipPath>
<clipPath id="clip1_3543_72">
<rect width="880" height="96" fill="white" transform="translate(328 138.2)"/>
</clipPath>
<clipPath id="clip2_3543_72">
<rect width="255" height="96" fill="white" transform="translate(328 138.2)"/>
</clipPath>
<clipPath id="clip3_3543_72">
<rect width="255" height="96" fill="white" transform="translate(613 138.2)"/>
</clipPath>
<clipPath id="clip4_3543_72">
<rect width="255" height="96" fill="white" transform="translate(898 138.2)"/>
</clipPath>
</defs>
</svg>
