<svg width="1536" height="306" viewBox="0 0 1536 306" fill="none" xmlns="http://www.w3.org/2000/svg">
<g clip-path="url(#clip0_3543_73)">
<rect width="1539" height="356" fill="#F18A2D"/>
<g opacity="0.12">
<path fill-rule="evenodd" clip-rule="evenodd" d="M499.026 24.7101C498.911 4.9032 452.965 -17.3703 433.339 -28.8536C394.533 -51.566 354.172 -72.5397 314.185 -93.8485C274.199 -115.157 234.104 -136.408 195.975 -159.802C171.217 -174.988 142.127 -192.092 125.336 -213.776C89.5669 -259.987 202.344 -253.124 231.556 -254.135C305.873 -256.717 391.114 -255.539 460.774 -279.603C502.358 -293.969 518.94 -318.062 510.008 -353.176C507.13 -364.596 498.608 -377.737 505.827 -388.862C513.535 -400.744 531.268 -407.6 545.986 -412.198C599.669 -428.949 661.39 -430.89 718.189 -432.993C779.435 -435.303 841.257 -434.627 902.072 -434.806C927.859 -434.882 954.79 -442.316 979.346 -448.358C1011.54 -456.277 1043.35 -465.173 1075.28 -473.773C1145.51 -492.65 1217.88 -512.532 1292.19 -517.327C1338.73 -520.33 1389.59 -516.27 1425.74 -490.143C1443.89 -477.025 1453.39 -457.525 1463.88 -440.202C1476.59 -419.274 1488.79 -398.144 1502.31 -377.546C1545.87 -311.205 1608.07 -246.378 1709.02 -243.12C1724.29 -242.629 1739.29 -244.229 1754.49 -244.529C1764.17 -244.714 1772.79 -242.837 1776.39 -234.709C1785.43 -214.325 1757 -182.145 1745.34 -165.971C1719.81 -130.568 1691.02 -96.754 1664.05 -62.0615C1646.21 -39.118 1615.33 -7.76425 1615.01 20.1122C1614.72 44.9503 1655.89 62.9031 1678.3 75.1373C1699.3 86.5917 1737.35 102.621 1739.65 125.923C1740.77 137.221 1731.48 146.584 1721.79 153.851C1704.8 166.559 1685.22 175.524 1669.93 190.022C1644.87 213.809 1623.92 246.538 1627.33 278.59C1629.69 300.8 1645.48 315.345 1665.57 329.248C1674.01 335.094 1680.86 339.23 1681.31 348.72C1682.03 363.791 1674.67 379.739 1668.61 393.712C1646.93 443.717 1616.14 492.071 1581.89 537.219C1564.78 559.781 1546.29 582.274 1523.6 601.52C1508.74 614.159 1488.69 629.2 1466.02 629.183C1439.77 629.183 1412 621.581 1386.49 615.898C1338.84 605.275 1291.76 592.995 1244.87 580.396C1136.44 551.249 1029.02 519.741 922.627 485.873C847.684 461.976 771.151 438.045 700.693 406.275C686.952 400.037 673.982 392.762 661.959 384.551C649.112 375.927 633.171 372.068 617.006 369.192C516.68 351.337 406.767 365.044 306.024 373.639C280.453 375.817 254.882 378.006 229.239 379.531C207.195 380.842 180.803 384.603 159.378 378.954C117.16 367.834 154.066 326.851 169.669 310.152C224.604 251.355 295.48 201.609 361.174 150.824C392.409 126.639 423.882 102.517 453.418 76.9626C468.798 63.6771 499.126 42.0737 499.026 24.7101Z" stroke="white"/>
<path fill-rule="evenodd" clip-rule="evenodd" d="M517.957 21.371C501.119 0.412288 471.576 -15.0787 447.054 -29.6574C411.764 -50.645 375.366 -70.4663 339.515 -90.8592C305.615 -110.144 271.644 -129.647 240.25 -151.547C221.108 -164.902 197.089 -180.872 188.022 -200.624C168.353 -243.436 274.164 -236.941 300.286 -238.061C365.226 -240.832 438.851 -241.468 498.929 -264.008C536.444 -278.085 551.856 -301.428 543.855 -333.836C541.089 -345.049 536.106 -354.622 542.415 -365.776C549.71 -378.687 566.491 -386.735 581.874 -392.417C630.062 -410.217 687.022 -413.999 739.258 -417.145C793.222 -420.396 849.447 -422.688 901.676 -420.31C922.561 -419.363 946.601 -424.738 967.271 -428.86C999.075 -435.212 1030.55 -442.539 1062.2 -449.352C1126.51 -463.209 1192.5 -476.557 1259.4 -478.076C1307.71 -479.173 1358.07 -473.226 1398.26 -450.241C1438.98 -426.932 1457.05 -390.8 1479.64 -356.452C1518.64 -297.069 1571.33 -224.868 1661.57 -212.322C1675.25 -210.416 1688.4 -211.45 1702.07 -210.982C1709.1 -210.745 1717.1 -209.995 1720.66 -204.435C1729.92 -190 1704.56 -163.608 1696.03 -152.552C1672.45 -121.997 1645.94 -92.9378 1621.23 -62.972C1601.6 -39.1783 1576.73 -12.7403 1569.14 15.4645C1559.92 49.6913 1620.11 74.045 1641.28 98.1446C1677.97 139.935 1608.45 163.746 1574.18 183.671C1534.82 206.547 1502.33 248.279 1537.61 283.673C1551.11 297.206 1567.72 305.272 1573.75 322.934C1583.17 350.556 1576.04 382.121 1568.39 409.425C1556.87 450.471 1538.64 491.072 1513.85 528.168C1496.09 554.727 1466.62 596.373 1423.48 593.25C1394.43 591.165 1364.9 583.55 1336.62 576.818C1294.27 566.742 1252.46 555.258 1210.87 543.33C1114.86 515.87 1019.91 485.592 926.825 452.289C863.311 429.558 686.144 336.664 672.813 333.35C633.065 323.477 587.873 325.215 546.894 326.745C492.383 328.777 438.145 334.043 383.95 338.922C358.153 341.231 332.226 344.055 306.292 345.192C287.834 346 263.592 346.693 247.423 338.084C215.865 321.289 251.024 282.858 265.565 266.6C310.109 216.755 366.457 173.59 419.29 129.456C445.217 107.787 471.54 86.1525 495.076 62.7457C504.568 53.2941 528.364 34.3158 517.957 21.371Z" stroke="white"/>
<path fill-rule="evenodd" clip-rule="evenodd" d="M541.252 10.6224C495.267 -31.3183 431.798 -62.5111 377.021 -97.5387C349.529 -115.125 321.863 -133.19 298.15 -154.137C285.815 -165.03 270.412 -178.804 268.036 -193.987C261.685 -234.606 357.053 -229.113 385.598 -230.655C440.785 -233.647 503.13 -235.917 553.198 -256.644C583.787 -269.316 598.851 -290.113 593.134 -317.447C590.599 -329.576 586.653 -339.879 593.134 -351.788C599.701 -363.853 613.383 -372.365 627.237 -378.747C667.051 -397.101 716.528 -402.969 761.354 -407.341C813.938 -412.433 866.918 -414.422 919.866 -413.29C966.24 -412.314 1012.39 -423.293 1057.67 -430.529C1117.65 -440.111 1178.72 -448.479 1240.1 -447.214C1288.58 -446.209 1337.44 -438.314 1378.88 -417.333C1420.99 -395.964 1446.31 -363.98 1469.13 -329.466C1503.64 -277.291 1546.64 -207.375 1622.35 -187.559C1633.36 -184.672 1643.62 -184.354 1654.97 -183.852C1660.49 -183.609 1667.61 -183.534 1670.35 -178.919C1676.93 -167.808 1652.6 -146.266 1645.81 -138.758C1624.13 -114.79 1600.64 -91.9019 1578.42 -68.2518C1557.68 -46.1726 1535.09 -23.1635 1522.21 2.71017C1501.71 43.9174 1567.25 68.0123 1565.42 107.279C1564.27 131.657 1535.17 149.139 1512.13 161.233C1483.76 176.104 1442.91 185.882 1428.71 213.02C1418.13 233.234 1434.73 244.999 1447.51 260.338C1469.17 286.327 1470.65 321.557 1468.39 351.641C1465.35 392.294 1453.48 433.547 1433.27 470.914C1424.11 487.853 1412.89 505.473 1396.37 518.63C1380.9 530.96 1366.25 534.119 1345.57 531.595C1282.26 523.856 1218.34 502.285 1157.62 483.019C1081.35 458.808 1006.12 432.08 933.138 402.008C883.372 381.499 832.484 359.801 788.803 331.467C777.419 324.081 765.76 316.053 757.436 306.31C751.143 298.987 748.471 292.94 737.864 288.758C706.425 276.37 662.694 279.61 629.009 280.898C575.146 282.948 521.543 288.406 468.012 293.321C436.774 296.209 377.929 305.293 352.985 283.503C331.454 264.687 357.435 232.605 370.706 216.029C404.277 174.112 447.46 137.322 487.526 99.4418C505.888 82.0811 524.97 64.5875 540.135 45.2862C544.01 40.3656 550.217 33.8452 551.282 27.8677C552.478 21.0181 546.897 15.7914 541.252 10.6224Z" stroke="white"/>
<path fill-rule="evenodd" clip-rule="evenodd" d="M545.205 20.3858C502.713 -16.6975 451.522 -47.1629 405.905 -81.8649C385.451 -97.4242 364.796 -113.746 349.211 -132.727C340.828 -142.935 331.926 -155.783 334.238 -168.47C340.871 -204.883 419.308 -201.594 450.996 -203.727C498.083 -206.859 552.176 -210.015 593.811 -229.649C621.085 -242.509 631.311 -261.502 626.22 -285.997C620.753 -312.272 632.975 -331.345 660.789 -346.003C695.661 -364.365 739.679 -371.85 780.169 -377.167C828.95 -383.543 878.35 -386.37 927.765 -385.612C975.824 -384.872 1022.38 -391.334 1070.13 -395.536C1133.42 -401.102 1198.75 -403.847 1261.34 -392.438C1315.83 -382.502 1365.05 -360.608 1401.94 -326.75C1440.48 -291.412 1459.56 -246.89 1490.85 -207.796C1510.37 -183.411 1537.58 -151.153 1574.05 -141.675C1586.22 -138.513 1608.39 -142.778 1598.67 -127.225C1593.12 -118.33 1582.72 -110.527 1574.51 -103.256C1561.25 -91.5057 1547.54 -80.079 1534.05 -68.4904C1505.3 -43.7875 1474.52 -18.5586 1452.97 10.6931C1425.82 47.5221 1466.18 75.8663 1461.26 113.21C1458.61 133.306 1441.2 149.345 1422.78 161.945C1410.86 170.106 1397.81 177.175 1384.5 183.77C1370.59 190.659 1354.14 195.907 1342.01 204.814C1324.72 217.489 1332.23 232.494 1335.47 248.879C1341.17 277.676 1342.42 306.927 1339.2 335.97C1335.25 371.568 1326 408.183 1306.5 440.532C1298.92 453.127 1289.31 466.478 1275.04 474.922C1260.78 483.367 1246.02 482.789 1229.67 480.245C1181.18 472.732 1132.79 455.248 1086.79 438.677C1029.22 417.933 972.777 394.75 918.878 368.377C881.673 350.171 844.345 330.502 813.218 305.816C804.165 298.632 795.552 290.939 788.588 282.35C783.805 276.461 781.242 268.86 774.313 264.433C752.635 250.613 709.114 254.74 683.691 255.544C632.953 257.145 583.015 264.757 532.342 266.606C504.687 267.618 461.374 270.161 441.065 251.266C421.965 233.505 439.264 205.531 450.679 188.417C473.113 154.767 503.253 124.787 530.268 93.5063C541.373 80.6347 553.545 67.1677 560.739 52.4696C567.135 39.3725 556.094 29.8936 545.205 20.3858Z" stroke="white"/>
<path fill-rule="evenodd" clip-rule="evenodd" d="M555.656 20.9926C521.834 -11.6396 481.061 -40.607 446.994 -73.7702C427.054 -93.1914 392.714 -125.841 408.135 -153.221C425.053 -183.308 484.026 -184.128 518.114 -186.552C558.686 -189.437 606.331 -193.379 641.053 -212.166C652.034 -218.105 661.389 -225.966 665.354 -236.32C669.6 -247.401 664.958 -257.097 664.354 -268.19C663.087 -291.461 680.401 -310.143 703.314 -322.973C735.696 -341.113 776.189 -349.69 814.437 -355.669C857.769 -362.413 901.82 -365.738 945.961 -365.596C988.144 -365.481 1029.88 -366.231 1072.11 -367.097C1127.33 -368.251 1183.33 -366.387 1236.9 -354.619C1289.67 -343.018 1337.65 -321.277 1375.33 -289.297C1412.1 -258.09 1436.9 -219.946 1458.63 -181.092C1470.96 -159.039 1491.78 -126.083 1521.18 -114.944C1534.26 -109.987 1547.09 -110.327 1533.19 -97.4335C1515.68 -81.1982 1492.08 -68.1718 1471.8 -54.2855C1442.55 -34.2467 1412.57 -13.8155 1388.01 10.0094C1372.33 25.2231 1365.34 39.9867 1366.42 59.685C1367.26 74.6909 1371.04 89.5411 1369.13 104.605C1364.65 139.961 1329.94 164.207 1299.26 186.786C1279.52 201.307 1261.49 212.382 1251.33 233.039C1239.31 257.452 1234.27 284.013 1226.24 309.361C1217.41 337.198 1207.22 366.153 1187.97 390.671C1170.83 412.499 1149.98 422.287 1118.78 416.406C1070.11 407.241 1022.14 384.663 978.933 363.776C934.958 342.525 891.738 318.631 855.296 289.421C835.622 273.647 822.194 255.126 804.722 238.181C782.745 216.907 733.027 224.964 703.479 226.765C654.43 229.755 500.095 252.125 514.336 179.669C520.28 149.427 543.689 121.515 560.808 94.8278C567.904 83.7523 578.173 70.4604 579.777 57.7688C581.526 43.946 565.824 30.8157 555.656 20.9926Z" stroke="white"/>
<path fill-rule="evenodd" clip-rule="evenodd" d="M573.513 23.7633C547.667 -5.80812 516.736 -33.7453 494.558 -65.6843C480.171 -86.3687 466.043 -114.006 484.603 -135.891C505.55 -160.589 551.739 -166.346 585.677 -169.493C620.645 -172.733 662.388 -175.458 690.968 -194.185C700.06 -200.15 707.556 -208.194 708.951 -217.826C710.296 -227.065 706.498 -236.305 707.757 -245.711C710.577 -266.835 726.539 -284.239 747.119 -296.862C807.997 -334.206 898.606 -342.51 972.058 -343.486C1008.82 -343.971 1046.66 -341.424 1083.66 -339.6C1131.68 -337.232 1179.77 -332.151 1225.56 -319.903C1322.92 -293.871 1388.18 -236.137 1433.76 -164.296C1448.1 -141.683 1459.08 -117.216 1481.56 -99.0439C1493.15 -89.6603 1490.62 -82.9214 1478.77 -74.3635C1460.25 -60.9896 1437.65 -50.7687 1417.09 -39.6065C1387.85 -23.7323 1357.99 -7.62131 1332.12 11.3943C1314.3 24.5025 1301.65 37.1314 1297.8 56.7879C1295.06 70.8027 1295.7 85.0832 1294.06 99.1846C1290.92 125.973 1280.18 152.559 1261.17 174.779C1246.06 192.391 1228.08 208.399 1209.49 223.661C1185.33 243.531 1164.89 263.719 1146.54 287.302C1122.21 318.519 1088.03 376.103 1030.73 360.864C967.526 344.048 908.288 301.322 867.739 259.925C854.122 246.025 842.943 228.979 824.578 218.729C797.085 203.409 769.189 203.946 736.488 204.01C687.529 204.096 580.994 212.625 579.844 153.771C579.39 130.454 591.964 108.407 597.985 85.9782C604.776 60.859 591.166 43.9165 573.513 23.7633Z" stroke="white"/>
<path fill-rule="evenodd" clip-rule="evenodd" d="M592.764 26.4C567.199 -12.1412 509.871 -75.4725 553.473 -118.33C576.505 -140.979 617.242 -149.491 651.415 -154.563C678.917 -158.666 712.082 -160.207 732.861 -177.599C748.134 -190.386 741.354 -208.996 747.206 -225.004C754.468 -244.848 771.137 -261.086 791.621 -273.291C848.862 -307.401 928.451 -317.868 997.308 -320.096C1068.82 -322.404 1147.62 -311.607 1214.91 -290.839C1298.82 -264.935 1361.68 -215.886 1405.65 -153.772C1413.76 -142.306 1421.13 -130.54 1428.91 -118.936C1434.15 -111.152 1441.91 -103.621 1446.03 -95.4327C1452.9 -81.7797 1444.81 -70.6195 1431.84 -61.7214C1413.18 -48.9109 1390.26 -39.7935 1369 -30.1798C1339.91 -17.0231 1310.18 -4.10291 1283.12 11.3332C1264.94 21.7201 1245.91 32.9091 1239.41 50.9304C1234.97 63.2216 1234.05 76.2398 1234.2 88.9696C1234.55 116.264 1232.76 138.336 1216.89 163.334C1190.76 204.374 1150.58 241.276 1108.14 271.981C1074.83 296.079 1022.12 333.512 973.593 317.401C930.049 302.974 904.577 268.444 875.888 240.526C861.94 226.954 846.271 214.559 827.86 204.905C804.648 192.735 782.797 187.628 755.296 185.637C709.009 182.284 639.216 181.413 624.908 136.865C619.625 120.425 622.64 103.396 619.869 86.7422C616.249 64.7219 605.662 45.8408 592.764 26.4Z" stroke="white"/>
<path fill-rule="evenodd" clip-rule="evenodd" d="M619.347 27.8273C601.142 -14.3442 577.227 -67.4919 621.196 -104.973C642.493 -123.129 672.451 -133.279 701.445 -140.865C722.21 -146.301 755.182 -147.901 767.913 -164.613C777.263 -176.913 778.558 -193.879 787.017 -207.057C798.64 -225.173 816.248 -240.095 836.905 -251.776C890.721 -282.214 960.814 -293.976 1024.74 -297.344C1163.63 -304.652 1304.95 -246.449 1379.27 -150.691C1401.43 -122.147 1430.04 -91.7665 1394.23 -62.6046C1355.13 -30.7911 1296.22 -15.8867 1249.56 6.71844C1231.73 15.3492 1209.01 25.7245 1199.06 41.3511C1193.07 50.7444 1192.66 62.5293 1192.39 72.87C1191.67 99.2069 1188.95 122.892 1175.75 147.467C1155.36 185.445 1122.86 220.482 1086.02 249.182C1053.9 274.207 1008.09 303.618 961.44 285.576C925.67 271.712 902.985 242.284 875.192 220.592C844.263 196.433 806.013 180.153 764.007 172.198C723.145 164.48 678.327 159.275 656.792 126.486C649.406 115.238 641.688 100.674 638.919 88.225C634.448 67.6989 627.903 47.4995 619.347 27.8273Z" stroke="white"/>
<path fill-rule="evenodd" clip-rule="evenodd" d="M648.988 28.1243C640.566 -14.46 639.63 -58.8635 678.76 -92.4261C697.022 -108.084 720.107 -119.208 743.452 -129.287C760.627 -136.703 778.364 -142.958 791.191 -155.116C803.075 -166.372 812.109 -179.443 823.583 -190.994C838.719 -206.302 856.829 -219.554 877.218 -230.24C928.326 -256.976 990.498 -269.48 1049.98 -273.818C1078.77 -275.926 1110 -277.023 1138.6 -271.277C1166.22 -265.732 1193.53 -256.964 1218.93 -246.741C1272.92 -225.03 1319.71 -193.235 1353.62 -153.036C1376.88 -125.463 1389.46 -98.6523 1359.34 -70.6806C1325.39 -39.1511 1272.15 -21.7547 1228.27 -1.29135C1198.17 12.7436 1164.44 26.5013 1158.82 56.3271C1154.34 80.0594 1150.7 102.585 1139.12 125.017C1121.88 158.106 1096.54 188.08 1064.59 213.16C1035.37 236.009 998.409 255.398 956.615 243.194C923.503 233.508 897.812 211.809 868.882 196.295C836.641 178.968 801.218 169.415 763.916 161.734C730.394 154.803 698.829 144.152 677.162 121.54C672.728 116.92 668.071 111.889 664.652 106.72C660.289 100.124 660.628 93.5861 659.771 86.1932C657.54 66.6829 652.796 47.3978 648.988 28.1243Z" stroke="white"/>
<path fill-rule="evenodd" clip-rule="evenodd" d="M681.67 24.6436C682.39 -15.8051 694.513 -54.0324 727.718 -85.5549C741.914 -99.0397 758.865 -110.147 774.485 -122.504C787.062 -132.465 798.948 -141.721 813.41 -149.93C847.716 -169.368 875.596 -194.521 912.053 -211.83C960.72 -234.97 1016.47 -247.76 1071.78 -252.874C1098.79 -255.374 1126.69 -256.247 1154.02 -253.424C1177.49 -251 1199.97 -242.49 1220.82 -233.784C1261.69 -216.73 1301.37 -192.491 1327.9 -161.824C1386.4 -94.215 1271.06 -45.0599 1211.86 -16.2737C1184.63 -3.03188 1143.03 12.3042 1131.88 38.5334C1123.91 57.271 1119.05 76.3268 1108.78 94.4859C1081.21 143.253 1025.22 200.612 950.618 192.975C918.694 189.713 889.598 176.459 859.796 167.562C829.109 158.399 797.437 153.29 765.542 147.685C735.733 142.449 711.975 134.998 692.722 115.023C683.519 105.483 684.332 94.0636 683.512 82.3605C682.174 63.137 681.346 43.8035 681.67 24.6436Z" stroke="white"/>
<path fill-rule="evenodd" clip-rule="evenodd" d="M711.43 19.4628C723.416 -41.5909 767.93 -108.244 833.383 -143.701C910.376 -185.41 993.786 -220.532 1085.77 -230.629C1128.42 -235.31 1175.14 -237.614 1215.38 -222.304C1246.01 -210.66 1281.59 -193.255 1298.44 -168.778C1339.68 -108.908 1247.96 -61.2474 1195.7 -33.5493C1167.56 -18.638 1131.75 -4.10777 1110.55 17.6674C1098.24 30.2926 1091.96 46.9935 1082.03 60.8599C1051.93 102.88 1002.38 136.773 940.657 142.834C912.119 145.634 883.372 142.171 855.05 139.417C826.058 136.6 796.706 135.07 767.894 131.139C744.895 127.998 717.79 122.681 709.319 102.932C698.638 78.0457 706.539 44.3957 711.43 19.4628Z" stroke="white"/>
<path fill-rule="evenodd" clip-rule="evenodd" d="M740.613 9.65483C758.093 -47.7459 795.109 -103.737 857.335 -138.004C890.334 -156.175 928.641 -168.718 965.419 -181.111C1007.11 -195.156 1050.66 -206.059 1095.15 -211.467C1150.54 -218.203 1240.25 -224.276 1269.19 -173.635C1297.91 -123.369 1225.33 -78.8816 1182.41 -53.5293C1154.89 -37.2884 1125.44 -22.3821 1099.15 -4.62748C1084.89 4.99805 1073.91 16.12 1061.84 27.4095C1028.5 58.6896 980.959 83.4526 932.506 96.6718C885.546 109.487 827.451 115.16 777.881 110.925C756.492 109.105 741.204 102.964 734.735 85.5036C725.772 61.2318 733.387 33.3662 740.613 9.65483Z" stroke="white"/>
<path fill-rule="evenodd" clip-rule="evenodd" d="M769.61 -5.80511C786.976 -56.3443 824.431 -102.505 879.065 -132.838C940.307 -166.841 1019.17 -185.736 1091.65 -195.344C1130.17 -200.448 1213.66 -214.285 1233.3 -174.683C1252.94 -135.082 1196.17 -96.0554 1163.5 -74.5716C1123.84 -48.5368 1081.08 -23.3995 1038.38 -0.0400255C1001.28 20.27 961.685 41.0346 921.497 56.7188C898.831 65.6163 875.22 72.8811 850.943 78.4269C832.967 82.5005 810.108 88.5762 791.261 85.5441C743.724 77.8861 761.305 18.3598 769.61 -5.80511Z" stroke="white"/>
<path fill-rule="evenodd" clip-rule="evenodd" d="M805.404 -20.9391C843.506 -116.515 964.222 -163.521 1080.45 -179.905C1107.46 -183.708 1183.18 -197.42 1198.27 -168.224C1212.9 -139.917 1166.38 -106.346 1144.59 -90.4408C1077.1 -41.1553 993.704 -4.61255 914.683 31.5897C890.018 42.8896 845.533 67.4111 814.937 56.0997C781.717 43.7957 797.511 -1.12104 805.404 -20.9391Z" stroke="white"/>
<path fill-rule="evenodd" clip-rule="evenodd" d="M844.432 -39.335C877.567 -109.719 973.943 -150.087 1062.55 -163.395C1084.25 -166.652 1139.37 -176.79 1155.81 -157.148C1171.02 -138.979 1134.72 -112.652 1121.14 -102.191C1090.9 -78.8948 1055.07 -59.7038 1019.67 -41.2576C986.94 -24.1912 953.855 -6.69761 919.415 7.73606C901.275 15.334 867.253 31.5459 846.639 19.8142C824.446 7.19339 837.075 -23.7062 844.432 -39.335Z" stroke="white"/>
<path fill-rule="evenodd" clip-rule="evenodd" d="M-220.956 78.8746C-221.868 33.7829 -251.73 -13.0802 -236.982 -59.0259C-224.873 -96.761 -163.907 -99.9114 -127.334 -117.008C-98.2703 -130.59 -81.7767 -154.65 -66.0592 -177.736C-51.9372 -198.461 -39.2525 -219.81 -24.3759 -240.195C-14.7456 -253.373 1.79116 -279.251 22.6759 -279.719C42.6695 -280.169 61.003 -260.003 72.6168 -248.082C87.7594 -232.544 101.184 -215.979 115.888 -200.192C140.668 -173.564 170.4 -153.854 204.444 -135.2C243.185 -113.974 282.566 -93.4741 322.587 -73.6987C352.053 -59.0951 381.72 -44.6012 410.043 -28.5551C427.809 -18.4866 467.02 0.404026 467.2 18.9658C467.286 27.8226 456.829 37.6314 449.779 44.711C437.849 56.6951 424.251 67.6521 410.611 78.3726C385.206 98.3422 358.722 117.406 332.527 136.7C298.526 161.742 266.049 186.374 236.159 214.802C205.256 244.228 175.733 274.624 145.606 304.604C125.202 324.914 104.821 347.723 75.3909 360.186C38.5299 375.765 8.27362 359.338 -29.0042 359.147C-61.0716 358.98 -58.7071 299.342 -62.782 282.76C-66.8713 265.975 -75.8835 250.35 -79.3763 233.525C-83.7315 212.523 -83.789 191.036 -84.8598 169.808C-86.1606 143.844 -86.6781 119.125 -121.254 109.224C-140.931 103.599 -162.218 102.416 -182.586 99.0461C-195.78 96.8594 -220.668 93.1205 -220.956 78.8746Z" stroke="white"/>
<path fill-rule="evenodd" clip-rule="evenodd" d="M-205.191 70.8531C-208.552 33.0551 -228.411 -15.3235 -209.632 -54.3408C-193.588 -87.6835 -143.413 -92.0059 -109.627 -109.521C-81.7365 -123.967 -69.3205 -147.608 -55.3786 -170.832C-44.1935 -189.462 -33.3466 -208.272 -20.6499 -226.307C-11.2929 -239.598 2.99444 -262.036 22.4497 -264.787C39.9401 -267.26 58.6972 -247.451 68.5148 -237.373C82.8381 -222.661 95.0885 -206.683 107.742 -191.04C129.976 -163.563 152.742 -138.853 185.283 -118.668C217.967 -98.397 253.725 -83.2397 289.865 -67.464C318.137 -55.1209 346.265 -42.4195 373.127 -28.1694C393.137 -17.5598 421.906 -3.98006 431.061 14.9392C438.309 29.9058 401.551 54.7423 390.711 63.5085C368.398 81.532 344.754 98.4518 321.066 115.268C292.189 135.759 262.391 153.678 236.89 177.053C191.278 218.844 153.152 270.886 94.4624 301.946C59.0642 320.68 19.6714 325.471 -19.6998 322.668C-35.29 321.559 -39.0327 303.894 -40.9977 293.59C-44.2654 276.474 -44.6757 259.063 -47.1877 241.877C-49.5413 225.79 -54.7668 210.505 -58.9775 194.73C-63.2385 178.746 -64.4333 162.369 -67.5715 146.276C-69.5149 136.285 -71.4366 124.658 -79.9371 116.626C-88.7326 108.31 -103.243 104.826 -115.925 102.179C-139.742 97.2556 -202.816 97.5273 -205.191 70.8531Z" stroke="white"/>
<path fill-rule="evenodd" clip-rule="evenodd" d="M-184.901 55.0303C-190.554 20.3346 -198.468 -22.8793 -175.438 -54.8453C-156.614 -80.9825 -116.467 -86.6208 -87.7917 -103.651C-63.9411 -117.814 -54.9323 -140.338 -43.0935 -161.27C-33.379 -178.439 -23.6141 -195.683 -11.84 -212.021C-2.91047 -224.411 8.59715 -241.211 26.3266 -245.533C41.4853 -249.227 58.6098 -232.681 67.0137 -224.446C81.3226 -210.41 92.9886 -194.684 104.575 -179.166C123.529 -153.773 140.971 -126.649 167.947 -105.994C194.159 -85.9514 225.297 -74.1207 257.019 -60.8184C281.316 -50.6266 305.462 -40.0425 328.354 -27.8886C345.933 -18.5625 367.717 -7.5109 376.877 8.00753C384.798 21.3907 364.462 37.2322 354.301 46.6737C337.522 62.2556 318.899 76.5506 300.536 90.9033C280.718 106.387 258.769 120.67 239.592 136.535C199.265 169.921 167.046 206.885 117.343 232.462C85.1537 249.031 41.8381 264.082 3.7867 261.375C-23.5781 259.425 -21.7777 210.82 -24.4062 195.291C-28.727 169.898 -37.0732 143.218 -50.3307 119.828C-61.7159 99.785 -88.771 93.6041 -113.659 89.1084C-129.249 86.2864 -145.589 84.7629 -160.668 80.3999C-178.124 75.3445 -182.531 69.5734 -184.901 55.0303Z" stroke="white"/>
<path fill-rule="evenodd" clip-rule="evenodd" d="M-165.974 38.7671C-169.34 9.43365 -168.583 -25.2537 -146.781 -50.6282C-127.674 -72.854 -93.6556 -78.7057 -69.4604 -96.2144C-50.5771 -109.874 -43.1608 -132.146 -33.0056 -150.21C-20.5945 -172.297 -3.20311 -213.091 28.1057 -221.403C57.2307 -229.13 87.689 -179.77 98.2334 -165.051C114.926 -141.754 128.886 -116.206 149.132 -94.6921C166.566 -76.1706 189.925 -65.9316 214.719 -54.9287C246.33 -40.8755 294.324 -24.2119 311.225 3.17686C323.824 23.5853 282.857 53.9259 268.868 68.0659C254.237 82.8369 243.217 100.346 228.117 114.596C204.29 137.082 165.68 155.187 133.802 169.003C102.81 182.442 62.5641 197.317 27.4066 196.432C4.29975 195.853 -0.0967367 167.214 -5.02658 153.224C-12.0898 133.337 -21.481 115.516 -41.6544 101.989C-62.1882 88.2197 -86.3905 81.7313 -111.833 76.0533C-124.892 73.1593 -139.79 70.902 -151.473 65.0562C-164.381 58.6952 -164.677 50.0421 -165.974 38.7671Z" stroke="white"/>
<path fill-rule="evenodd" clip-rule="evenodd" d="M-142.914 21.8595C-142.727 -3.48243 -135.507 -30.5062 -114.099 -50.054C-96.2683 -66.3363 -68.3585 -71.779 -51.2893 -88.4241C-37.769 -101.602 -30.8867 -120.102 -21.8349 -135.405C-10.7643 -154.158 4.88958 -186.918 32.4187 -193.426C59.2868 -199.762 83.0515 -163.678 93.3533 -149.4C108.44 -128.464 120.653 -106.273 135.875 -85.3946C147.801 -69.0145 162.384 -58.4572 181.803 -47.9C204.598 -35.4997 236.401 -21.7632 248.578 -1.24773C257.357 13.6061 236.107 37.3412 228.391 50.4268C223.218 59.2159 218.484 68.1432 215.884 77.6695C213.858 85.0877 213.657 91.9531 207.787 98.3231C193.01 114.346 160.61 116.437 138.627 121.718C109.431 128.728 78.4537 136.693 47.9002 138.214C29.1212 139.164 19.5378 125.278 8.81925 115.51C-3.84614 103.962 -21.7774 95.6565 -37.4385 86.9423C-58.1069 75.4232 -80.6 68.2584 -103.869 60.9207C-114.365 57.609 -126.693 54.3606 -134.825 47.7774C-143.316 40.9524 -142.979 31.0057 -142.914 21.8595Z" stroke="white"/>
<path fill-rule="evenodd" clip-rule="evenodd" d="M-118.694 6.81503C-114.983 -14.4688 -103.42 -34.8111 -83.888 -49.8571C-68.9156 -61.4087 -49.0316 -67.9123 -37.0149 -81.7915C-25.818 -94.7293 -18.0154 -109.44 -8.76739 -123.273C1.02001 -137.898 15.5609 -162.341 38.1344 -166.32C62.4627 -170.606 81.2033 -145.949 91.5804 -132.284C104.69 -115.014 114.65 -96.4332 126.372 -78.5686C135.203 -65.2534 146.467 -53.0757 159.79 -42.441C173.763 -31.2302 192.712 -20.4929 199.781 -5.07734C206.03 8.57665 194.337 25.0954 192.273 38.94C190.066 53.7318 193.935 69.2687 181.695 81.9697C156.453 108.163 93.1049 103.306 56.8894 103.866C21.1557 104.443 -7.57363 88.4155 -36.4899 73.1674C-55.5901 63.1002 -75.4813 54.5751 -95.0633 45.1952C-115.026 35.6247 -121.959 25.5459 -118.694 6.81503Z" stroke="white"/>
<path fill-rule="evenodd" clip-rule="evenodd" d="M-96.1912 -5.36696C-85.2177 -36.2011 -50.9447 -52.5893 -26.4434 -75.8912C-6.39627 -94.9674 8.6355 -134.473 42.3976 -139.698C80.729 -145.629 103.676 -93.2852 117.002 -73.0876C131.79 -50.6875 158.126 -32.4668 169.078 -8.75443C174.834 3.69137 169.891 15.3047 166.825 27.7447C163.465 41.4045 160.939 55.3706 149.34 66.3654C126.508 88.0025 81.9163 87.8522 49.802 88.4476C16.558 89.0661 -12.8508 74.2387 -39.3381 59.4402C-67.43 43.7688 -107.431 26.2533 -96.1912 -5.36696Z" stroke="white"/>
<path fill-rule="evenodd" clip-rule="evenodd" d="M-77.8118 -13.7281C-65.4468 -35.6964 -39.4629 -53.5561 -18.3787 -70.416C-0.78067 -84.4716 18.151 -112.767 44.9828 -114.784C76.5186 -117.163 95.6315 -86.9483 108.04 -68.422C120.253 -50.2175 137.851 -30.9959 144.613 -11.0158C151.665 9.79755 132.886 37.8284 114.976 52.5563C95.0009 68.9794 62.3199 75.0476 34.2776 74.3925C4.91623 73.7259 -22.0244 60.153 -44.2611 46.0744C-68.0343 31.0246 -92.1917 11.7743 -77.8118 -13.7281Z" stroke="white"/>
<path fill-rule="evenodd" clip-rule="evenodd" d="M-60.7577 -17.864C-48.9465 -36.1358 -28.4729 -51.5926 -9.59538 -65.3799C4.97266 -76.0241 26.4692 -94.1232 47.487 -94.5664C70.6086 -95.0558 90.2044 -79.8638 99.3965 -64.2919C108.458 -48.933 118.006 -29.6768 119.362 -12.8269C122.308 23.8664 62.3379 64.9694 17.3062 61.6247C-25.3895 58.4528 -84.3074 18.5415 -60.7577 -17.864Z" stroke="white"/>
<path fill-rule="evenodd" clip-rule="evenodd" d="M-44.9857 -19.8787C-28.6916 -43.6854 10.8871 -77.6251 47.529 -78.4312C89.5877 -79.3523 100.146 -41.584 94.6637 -14.2135C89.0946 13.7213 40.6038 54.1552 1.93878 48.6915C-35.798 43.3602 -64.2964 8.35539 -44.9857 -19.8787Z" stroke="white"/>
<path fill-rule="evenodd" clip-rule="evenodd" d="M-28.3328 -23.728C-14.5372 -43.661 14.9018 -68.5585 45.606 -69.3121C82.1908 -70.2037 81.5007 -38.3168 73.2046 -18.4701C64.5778 2.13594 26.5839 37.3307 -5.45026 31.7736C-36.6002 26.3489 -41.5534 -4.62343 -28.3328 -23.728Z" stroke="white"/>
<path fill-rule="evenodd" clip-rule="evenodd" d="M-13.8286 -26.0221C-4.72253 -40.2452 18.068 -58.2216 39.7337 -58.7968C66.2157 -59.4882 61.0679 -34.1969 54.2257 -21.9899C46.0929 -7.46471 18.8322 17.7743 -4.04479 13.684C-26.5685 9.6576 -21.3414 -14.3032 -13.8286 -26.0221Z" stroke="white"/>
</g>
</g>
<defs>
<clipPath id="clip0_3543_73">
<rect width="1536" height="305" fill="white" transform="translate(0 0.100098)"/>
</clipPath>
</defs>
</svg>
