<svg width="135" height="42" viewBox="0 0 135 42" fill="none" xmlns="http://www.w3.org/2000/svg">
<rect x="0.400024" y="0.5" width="134.6" height="40.6" rx="4" fill="#F18A2D"/>
<path d="M21.52 14.5C23.0773 14.5 24.272 14.7987 25.104 15.396C25.9467 15.9827 26.368 16.8627 26.368 18.036C26.368 18.676 26.2507 19.2253 26.016 19.684C25.792 20.132 25.4613 20.5 25.024 20.788C24.5973 21.0653 24.0747 21.268 23.456 21.396C22.8373 21.524 22.1387 21.588 21.36 21.588H20.128V25.7H18.576V14.772C19.0133 14.6653 19.4987 14.596 20.032 14.564C20.576 14.5213 21.072 14.5 21.52 14.5ZM21.648 15.86C20.9867 15.86 20.48 15.876 20.128 15.908V20.26H21.296C21.8293 20.26 22.3093 20.228 22.736 20.164C23.1627 20.0893 23.52 19.972 23.808 19.812C24.1067 19.6413 24.336 19.412 24.496 19.124C24.656 18.836 24.736 18.468 24.736 18.02C24.736 17.5933 24.6507 17.2413 24.48 16.964C24.32 16.6867 24.096 16.468 23.808 16.308C23.5307 16.1373 23.2053 16.02 22.832 15.956C22.4587 15.892 22.064 15.86 21.648 15.86ZM30.7335 24.628C31.0855 24.628 31.3948 24.6227 31.6615 24.612C31.9388 24.5907 32.1682 24.5587 32.3495 24.516V22.036C32.2428 21.9827 32.0668 21.94 31.8215 21.908C31.5868 21.8653 31.2988 21.844 30.9575 21.844C30.7335 21.844 30.4935 21.86 30.2375 21.892C29.9922 21.924 29.7628 21.9933 29.5495 22.1C29.3468 22.196 29.1762 22.3347 29.0375 22.516C28.8988 22.6867 28.8295 22.916 28.8295 23.204C28.8295 23.7373 29.0002 24.1107 29.3415 24.324C29.6828 24.5267 30.1468 24.628 30.7335 24.628ZM30.6055 17.172C31.2028 17.172 31.7042 17.252 32.1095 17.412C32.5255 17.5613 32.8562 17.78 33.1015 18.068C33.3575 18.3453 33.5388 18.6813 33.6455 19.076C33.7522 19.46 33.8055 19.8867 33.8055 20.356V25.556C33.6775 25.5773 33.4962 25.6093 33.2615 25.652C33.0375 25.684 32.7815 25.716 32.4935 25.748C32.2055 25.78 31.8908 25.8067 31.5495 25.828C31.2188 25.86 30.8882 25.876 30.5575 25.876C30.0882 25.876 29.6562 25.828 29.2615 25.732C28.8668 25.636 28.5255 25.4867 28.2375 25.284C27.9495 25.0707 27.7255 24.7933 27.5655 24.452C27.4055 24.1107 27.3255 23.7 27.3255 23.22C27.3255 22.7613 27.4162 22.3667 27.5975 22.036C27.7895 21.7053 28.0455 21.4387 28.3655 21.236C28.6855 21.0333 29.0588 20.884 29.4855 20.788C29.9122 20.692 30.3602 20.644 30.8295 20.644C30.9788 20.644 31.1335 20.6547 31.2935 20.676C31.4535 20.6867 31.6028 20.708 31.7415 20.74C31.8908 20.7613 32.0188 20.7827 32.1255 20.804C32.2322 20.8253 32.3068 20.8413 32.3495 20.852V20.436C32.3495 20.1907 32.3228 19.9507 32.2695 19.716C32.2162 19.4707 32.1202 19.2573 31.9815 19.076C31.8428 18.884 31.6508 18.7347 31.4055 18.628C31.1708 18.5107 30.8615 18.452 30.4775 18.452C29.9868 18.452 29.5548 18.4893 29.1815 18.564C28.8188 18.628 28.5468 18.6973 28.3655 18.772L28.1895 17.54C28.3815 17.4547 28.7015 17.3747 29.1495 17.3C29.5975 17.2147 30.0828 17.172 30.6055 17.172ZM39.3489 17.204C39.4769 17.204 39.6209 17.2147 39.7809 17.236C39.9516 17.2467 40.1169 17.268 40.2769 17.3C40.4369 17.3213 40.5809 17.348 40.7089 17.38C40.8476 17.4013 40.9489 17.4227 41.0129 17.444L40.7569 18.74C40.6396 18.6973 40.4422 18.6493 40.1649 18.596C39.8982 18.532 39.5516 18.5 39.1249 18.5C38.8476 18.5 38.5702 18.532 38.2929 18.596C38.0262 18.6493 37.8502 18.6867 37.7649 18.708V25.7H36.2769V17.732C36.6289 17.604 37.0662 17.4867 37.5889 17.38C38.1116 17.2627 38.6982 17.204 39.3489 17.204ZM43.8408 17.38H46.9928V18.628H43.8408V22.468C43.8408 22.884 43.8728 23.2307 43.9368 23.508C44.0008 23.7747 44.0968 23.988 44.2248 24.148C44.3528 24.2973 44.5128 24.404 44.7048 24.468C44.8968 24.532 45.1208 24.564 45.3768 24.564C45.8248 24.564 46.1821 24.516 46.4488 24.42C46.7261 24.3133 46.9181 24.2387 47.0248 24.196L47.3128 25.428C47.1634 25.5027 46.9021 25.5933 46.5288 25.7C46.1554 25.8173 45.7288 25.876 45.2488 25.876C44.6834 25.876 44.2141 25.8067 43.8408 25.668C43.4781 25.5187 43.1848 25.3 42.9608 25.012C42.7368 24.724 42.5768 24.372 42.4808 23.956C42.3954 23.5293 42.3528 23.0387 42.3528 22.484V15.06L43.8408 14.804V17.38ZM48.8863 17.62C49.2276 17.5347 49.6809 17.444 50.2463 17.348C50.8116 17.252 51.4623 17.204 52.1983 17.204C52.8596 17.204 53.4089 17.3 53.8463 17.492C54.2836 17.6733 54.6303 17.9347 54.8863 18.276C55.1529 18.6067 55.3396 19.0067 55.4463 19.476C55.5529 19.9453 55.6063 20.4627 55.6063 21.028V25.7H54.1183V21.348C54.1183 20.836 54.0809 20.3987 54.0063 20.036C53.9423 19.6733 53.8303 19.38 53.6703 19.156C53.5103 18.932 53.2969 18.772 53.0303 18.676C52.7636 18.5693 52.4329 18.516 52.0383 18.516C51.8783 18.516 51.7129 18.5213 51.5423 18.532C51.3716 18.5427 51.2063 18.5587 51.0463 18.58C50.8969 18.5907 50.7583 18.6067 50.6303 18.628C50.5129 18.6493 50.4276 18.6653 50.3743 18.676V25.7H48.8863V17.62ZM57.6098 21.556C57.6098 20.82 57.7164 20.18 57.9298 19.636C58.1431 19.0813 58.4258 18.6227 58.7778 18.26C59.1298 17.8973 59.5351 17.6253 59.9938 17.444C60.4524 17.2627 60.9218 17.172 61.4018 17.172C62.5218 17.172 63.3804 17.524 63.9778 18.228C64.5751 18.9213 64.8738 19.9827 64.8738 21.412C64.8738 21.476 64.8738 21.5613 64.8738 21.668C64.8738 21.764 64.8684 21.8547 64.8578 21.94H59.1618C59.2258 22.804 59.4764 23.46 59.9138 23.908C60.3511 24.356 61.0338 24.58 61.9618 24.58C62.4844 24.58 62.9218 24.5373 63.2738 24.452C63.6364 24.356 63.9084 24.2653 64.0898 24.18L64.2978 25.428C64.1164 25.524 63.7964 25.6253 63.3378 25.732C62.8898 25.8387 62.3778 25.892 61.8018 25.892C61.0764 25.892 60.4471 25.7853 59.9138 25.572C59.3911 25.348 58.9591 25.044 58.6178 24.66C58.2764 24.276 58.0204 23.8227 57.8498 23.3C57.6898 22.7667 57.6098 22.1853 57.6098 21.556ZM63.3218 20.74C63.3324 20.068 63.1618 19.5187 62.8098 19.092C62.4684 18.6547 61.9938 18.436 61.3858 18.436C61.0444 18.436 60.7404 18.5053 60.4738 18.644C60.2178 18.772 59.9991 18.9427 59.8178 19.156C59.6364 19.3693 59.4924 19.6147 59.3858 19.892C59.2898 20.1693 59.2258 20.452 59.1938 20.74H63.3218ZM70.0833 17.204C70.2113 17.204 70.3553 17.2147 70.5153 17.236C70.6859 17.2467 70.8513 17.268 71.0113 17.3C71.1713 17.3213 71.3153 17.348 71.4433 17.38C71.5819 17.4013 71.6833 17.4227 71.7473 17.444L71.4913 18.74C71.3739 18.6973 71.1766 18.6493 70.8993 18.596C70.6326 18.532 70.2859 18.5 69.8593 18.5C69.5819 18.5 69.3046 18.532 69.0273 18.596C68.7606 18.6493 68.5846 18.6867 68.4993 18.708V25.7H67.0113V17.732C67.3633 17.604 67.8006 17.4867 68.3233 17.38C68.8459 17.2627 69.4326 17.204 70.0833 17.204ZM75.1191 24.628C75.7271 24.628 76.1751 24.548 76.4631 24.388C76.7618 24.228 76.9111 23.972 76.9111 23.62C76.9111 23.2573 76.7671 22.9693 76.4791 22.756C76.1911 22.5427 75.7165 22.3027 75.0551 22.036C74.7351 21.908 74.4258 21.78 74.1271 21.652C73.8391 21.5133 73.5885 21.3533 73.3751 21.172C73.1618 20.9907 72.9911 20.772 72.8631 20.516C72.7351 20.26 72.6711 19.9453 72.6711 19.572C72.6711 18.836 72.9431 18.2547 73.4871 17.828C74.0311 17.3907 74.7725 17.172 75.7111 17.172C75.9458 17.172 76.1805 17.188 76.4151 17.22C76.6498 17.2413 76.8685 17.2733 77.0711 17.316C77.2738 17.348 77.4498 17.3853 77.5991 17.428C77.7591 17.4707 77.8818 17.508 77.9671 17.54L77.6951 18.82C77.5351 18.7347 77.2845 18.6493 76.9431 18.564C76.6018 18.468 76.1911 18.42 75.7111 18.42C75.2951 18.42 74.9325 18.5053 74.6231 18.676C74.3138 18.836 74.1591 19.092 74.1591 19.444C74.1591 19.6253 74.1911 19.7853 74.2551 19.924C74.3298 20.0627 74.4365 20.1907 74.5751 20.308C74.7245 20.4147 74.9058 20.516 75.1191 20.612C75.3325 20.708 75.5885 20.8093 75.8871 20.916C76.2818 21.0653 76.6338 21.2147 76.9431 21.364C77.2525 21.5027 77.5138 21.668 77.7271 21.86C77.9511 22.052 78.1218 22.2867 78.2391 22.564C78.3565 22.8307 78.4151 23.1613 78.4151 23.556C78.4151 24.324 78.1271 24.9053 77.5511 25.3C76.9858 25.6947 76.1751 25.892 75.1191 25.892C74.3831 25.892 73.8071 25.828 73.3911 25.7C72.9751 25.5827 72.6925 25.492 72.5431 25.428L72.8151 24.148C72.9858 24.212 73.2578 24.308 73.6311 24.436C74.0045 24.564 74.5005 24.628 75.1191 24.628ZM80.3238 25.7V13.54L81.8118 13.284V17.54C82.0891 17.4333 82.3824 17.3533 82.6918 17.3C83.0118 17.236 83.3264 17.204 83.6358 17.204C84.2971 17.204 84.8464 17.3 85.2838 17.492C85.7211 17.6733 86.0678 17.9347 86.3238 18.276C86.5904 18.6067 86.7771 19.0067 86.8838 19.476C86.9904 19.9453 87.0438 20.4627 87.0438 21.028V25.7H85.5558V21.348C85.5558 20.836 85.5184 20.3987 85.4438 20.036C85.3798 19.6733 85.2678 19.38 85.1078 19.156C84.9478 18.932 84.7344 18.772 84.4678 18.676C84.2011 18.5693 83.8704 18.516 83.4758 18.516C83.3158 18.516 83.1504 18.5267 82.9798 18.548C82.8091 18.5693 82.6438 18.596 82.4838 18.628C82.3344 18.6493 82.1958 18.676 82.0678 18.708C81.9504 18.74 81.8651 18.7667 81.8118 18.788V25.7H80.3238ZM90.9524 25.7H89.4644V17.38H90.9524V25.7ZM90.2004 15.876C89.9337 15.876 89.7044 15.7907 89.5124 15.62C89.3311 15.4387 89.2404 15.1987 89.2404 14.9C89.2404 14.6013 89.3311 14.3667 89.5124 14.196C89.7044 14.0147 89.9337 13.924 90.2004 13.924C90.4671 13.924 90.6911 14.0147 90.8724 14.196C91.0644 14.3667 91.1604 14.6013 91.1604 14.9C91.1604 15.1987 91.0644 15.4387 90.8724 15.62C90.6911 15.7907 90.4671 15.876 90.2004 15.876ZM99.2873 21.556C99.2873 20.5853 99.0473 19.8387 98.5673 19.316C98.0873 18.7933 97.4473 18.532 96.6473 18.532C96.1993 18.532 95.8473 18.548 95.5913 18.58C95.3459 18.612 95.1486 18.6493 94.9993 18.692V23.94C95.1806 24.0893 95.4419 24.2333 95.7833 24.372C96.1246 24.5107 96.4979 24.58 96.9033 24.58C97.3299 24.58 97.6926 24.5053 97.9913 24.356C98.3006 24.196 98.5513 23.9827 98.7433 23.716C98.9353 23.4387 99.0739 23.1187 99.1593 22.756C99.2446 22.3827 99.2873 21.9827 99.2873 21.556ZM100.839 21.556C100.839 22.1853 100.754 22.7667 100.583 23.3C100.423 23.8333 100.183 24.292 99.8633 24.676C99.5433 25.06 99.1486 25.3587 98.6793 25.572C98.2206 25.7853 97.6926 25.892 97.0953 25.892C96.6153 25.892 96.1886 25.828 95.8153 25.7C95.4526 25.572 95.1806 25.4493 94.9993 25.332V28.66H93.5113V17.636C93.8633 17.5507 94.3006 17.46 94.8233 17.364C95.3566 17.2573 95.9699 17.204 96.6633 17.204C97.3033 17.204 97.8793 17.3053 98.3913 17.508C98.9033 17.7107 99.3406 17.9987 99.7033 18.372C100.066 18.7453 100.343 19.204 100.535 19.748C100.738 20.2813 100.839 20.884 100.839 21.556Z" fill="white"/>
<g clip-path="url(#clip0_3543_2)">
<path d="M121.907 19.793L117.2 15.086L115.786 16.5L118.786 19.5H110.2V21.5H118.786L115.786 24.5L117.2 25.914L121.907 21.207C122.094 21.0195 122.2 20.7652 122.2 20.5C122.2 20.2348 122.094 19.9805 121.907 19.793Z" fill="white"/>
</g>
<defs>
<clipPath id="clip0_3543_2">
<rect width="12" height="12" fill="white" transform="translate(110.2 14.5)"/>
</clipPath>
</defs>
</svg>
